<svg width="34" height="34" viewBox="0 0 34 34" xmlns="http://www.w3.org/2000/svg">
  <style>
    :root { --pillBg: rgba(255,255,255,0.05); --pillBorder: rgba(255,255,255,0.14); --text: #F8FAFC; }
    @media (prefers-color-scheme: light) {
      :root { --pillBg: rgba(15,23,42,0.035); --pillBorder: rgba(15,23,42,0.14); --text: #0F172A; }
    }
  </style>
  <circle cx="17" cy="17" r="16" fill="var(--pillBg)" stroke="var(--pillBorder)"/>
  <path d="M17 8c-5 0-9 4-9 9 0 4 2.6 7.4 6.2 8.6.5.1.6-.2.6-.5v-1.7c-2.5.5-3-1.2-3-1.2-.4-1-1-1.3-1-1.3-.8-.6.1-.6.1-.6.9.1 1.4.9 1.4.9.8 1.4 2.2 1 2.7.8.1-.6.3-1 .6-1.2-2-.2-4.1-1-4.1-4.4 0-1 .3-1.7.9-2.4-.1-.2-.4-1.2.1-2.5 0 0 .7-.2 2.4.9.7-.2 1.4-.3 2.1-.3.7 0 1.4.1 2.1.3 1.7-1.1 2.4-.9 2.4-.9.5 1.3.2 2.3.1 2.5.6.7.9 1.4.9 2.4 0 3.4-2.1 4.2-4.1 4.4.3.3.6.8.6 1.6v2.4c0 .3.1.6.6.5C24.4 24.4 27 21 27 17c0-5-4.5-9-10-9z" fill="var(--text)"/>
</svg>
