<svg width="140" height="150" viewBox="0 0 140 150" xmlns="http://www.w3.org/2000/svg">
  <style>
    :root {
      --bg: #030712;
      --text: #F8FAFC;
      --muted: #94A3B8;
      --accent1: #7C3AED;
      --accent2: #22D3EE;
      --accent3: #10B981;
      --pillBg: rgba(255,255,255,0.05);
      --pillBorder: rgba(255,255,255,0.14);
    }
    @media (prefers-color-scheme: light) {
      :root {
        --bg: #FFFFFF;
        --text: #0F172A;
        --muted: #64748B;
        --accent1: #2563EB;
        --accent2: #06B6D4;
        --accent3: #10B981;
        --pillBg: rgba(15,23,42,0.035);
        --pillBorder: rgba(15,23,42,0.14);
      }
    }
    text { font-family: -apple-system, "Segoe UI", ui-sans-serif, Helvetica, Arial, sans-serif; }
    .mono { font-family: "SFMono-Regular", Consolas, Menlo, monospace; }
  </style>
  <defs>
    <linearGradient id="accentGH" x1="0%" y1="0%" x2="100%" y2="100%">
      <stop offset="0%" stop-color="var(--accent1)"/>
      <stop offset="100%" stop-color="var(--accent2)"/>
    </linearGradient>
  </defs>
  <rect width="140" height="150" fill="var(--bg)"/>
  <g transform="translate(70,44)">
    <circle r="30" fill="var(--pillBg)" stroke="url(#accentGH)" stroke-width="1.3"/>
    <path d="M0-19c-10.5 0-19 8.5-19 19 0 8.4 5.5 15.5 13 18 1 .2 1.3-.4 1.3-1v-3.6c-5.3 1.1-6.4-2.5-6.4-2.5-.9-2.2-2.1-2.8-2.1-2.8-1.7-1.2.1-1.2.1-1.2 1.9.1 2.9 2 2.9 2 1.7 2.9 4.5 2.1 5.6 1.6.2-1.3.7-2.1 1.2-2.6-4.2-.5-8.6-2.1-8.6-9.3 0-2 .7-3.7 2-5-.2-.5-.9-2.5.2-5.2 0 0 1.6-.5 5.2 1.9 1.5-.4 3.1-.6 4.7-.6 1.6 0 3.2.2 4.7.6 3.6-2.4 5.2-1.9 5.2-1.9 1 2.7.4 4.7.2 5.2 1.3 1.4 2 3 2 5 0 7.2-4.4 8.8-8.6 9.3.7.6 1.3 1.8 1.3 3.6v5.3c0 .6.3 1.2 1.3 1 7.5-2.5 13-9.6 13-18 0-10.5-8.5-19-19-19z" fill="var(--text)"/>
  </g>
  <text x="70" y="112" text-anchor="middle" font-size="13" font-weight="600" fill="var(--text)">GitHub</text>
  <text x="70" y="130" text-anchor="middle" font-size="10.5" class="mono" fill="var(--muted)">@youknowumer</text>
</svg>
