<svg width="1280" height="572" viewBox="0 0 1280 572" xmlns="http://www.w3.org/2000/svg" role="img">
  <style>
    :root {
      --bg: #04060d; --bg2: #0b1020; --card: rgba(255,255,255,0.04); --cardHi: rgba(255,255,255,0.085);
      --border: rgba(255,255,255,0.10); --text: #F8FAFC; --text2: #CBD5E1; --muted: #94A3B8; --muted2: #64748B;
      --a1: #8B5CF6; --a2: #22D3EE; --a3: #6366F1; --a4: #A78BFA; --a5: #38BDF8; --ok: #34D399;
      --chip: rgba(255,255,255,0.05); --chipB: rgba(255,255,255,0.14); --track: rgba(255,255,255,0.075); --grid: rgba(255,255,255,0.05);
    }
    @media (prefers-color-scheme: light) {
      :root {
        --bg: #FFFFFF; --bg2: #F1F5F9; --card: rgba(15,23,42,0.025); --cardHi: rgba(15,23,42,0.06);
        --border: rgba(15,23,42,0.12); --text: #0F172A; --text2: #334155; --muted: #475569; --muted2: #64748B;
        --a1: #6D28D9; --a2: #0E7490; --a3: #4338CA; --a4: #7C3AED; --a5: #0369A1; --ok: #047857;
        --chip: rgba(15,23,42,0.04); --chipB: rgba(15,23,42,0.16); --track: rgba(15,23,42,0.09); --grid: rgba(15,23,42,0.06);
      }
    }
    text { font-family: -apple-system, BlinkMacSystemFont, "Segoe UI", Inter, ui-sans-serif, Helvetica, Arial, sans-serif; }
    .m { font-family: "SFMono-Regular", "JetBrains Mono", Consolas, Menlo, monospace; }
</style>
  <defs>
    <linearGradient id="acc" x1="0%" y1="0%" x2="100%" y2="100%"><stop offset="0%" stop-color="var(--a1)"/><stop offset="55%" stop-color="var(--a2)"/><stop offset="100%" stop-color="var(--a5)"/><animate attributeName="x1" values="0%;100%;0%" dur="10s" repeatCount="indefinite"/><animate attributeName="x2" values="100%;0%;100%" dur="10s" repeatCount="indefinite"/></linearGradient>
    <linearGradient id="accH" x1="0%" y1="0%" x2="100%" y2="0%"><stop offset="0%" stop-color="var(--a1)"/><stop offset="55%" stop-color="var(--a2)"/><stop offset="100%" stop-color="var(--a5)"/></linearGradient>
    <linearGradient id="bgG" x1="0" y1="0" x2="0" y2="1"><stop offset="0%" stop-color="var(--bg)"/><stop offset="100%" stop-color="var(--bg2)"/></linearGradient>
    <linearGradient id="cardG" x1="0" y1="0" x2="0" y2="1"><stop offset="0%" stop-color="var(--cardHi)"/><stop offset="100%" stop-color="var(--card)"/></linearGradient>
    <linearGradient id="fade" x1="0" y1="0" x2="1" y2="0"><stop offset="0%" stop-color="var(--a1)" stop-opacity="0"/><stop offset="30%" stop-color="var(--a1)"/><stop offset="70%" stop-color="var(--a2)"/><stop offset="100%" stop-color="var(--a2)" stop-opacity="0"/></linearGradient>
    <radialGradient id="gl1" cx="50%" cy="50%" r="50%"><stop offset="0%" stop-color="var(--a1)" stop-opacity="0.30"/><stop offset="100%" stop-color="var(--a1)" stop-opacity="0"/></radialGradient><radialGradient id="gl2" cx="50%" cy="50%" r="50%"><stop offset="0%" stop-color="var(--a2)" stop-opacity="0.30"/><stop offset="100%" stop-color="var(--a2)" stop-opacity="0"/></radialGradient><radialGradient id="gl3" cx="50%" cy="50%" r="50%"><stop offset="0%" stop-color="var(--a3)" stop-opacity="0.30"/><stop offset="100%" stop-color="var(--a3)" stop-opacity="0"/></radialGradient><radialGradient id="gl4" cx="50%" cy="50%" r="50%"><stop offset="0%" stop-color="var(--a4)" stop-opacity="0.30"/><stop offset="100%" stop-color="var(--a4)" stop-opacity="0"/></radialGradient><radialGradient id="gl5" cx="50%" cy="50%" r="50%"><stop offset="0%" stop-color="var(--a5)" stop-opacity="0.30"/><stop offset="100%" stop-color="var(--a5)" stop-opacity="0"/></radialGradient>
    <linearGradient id="ln1" x1="0" y1="0" x2="1" y2="0"><stop offset="0%" stop-color="var(--a1)"/><stop offset="100%" stop-color="var(--a1)" stop-opacity="0"/></linearGradient><linearGradient id="ln2" x1="0" y1="0" x2="1" y2="0"><stop offset="0%" stop-color="var(--a2)"/><stop offset="100%" stop-color="var(--a2)" stop-opacity="0"/></linearGradient><linearGradient id="ln3" x1="0" y1="0" x2="1" y2="0"><stop offset="0%" stop-color="var(--a3)"/><stop offset="100%" stop-color="var(--a3)" stop-opacity="0"/></linearGradient><linearGradient id="ln4" x1="0" y1="0" x2="1" y2="0"><stop offset="0%" stop-color="var(--a4)"/><stop offset="100%" stop-color="var(--a4)" stop-opacity="0"/></linearGradient><linearGradient id="ln5" x1="0" y1="0" x2="1" y2="0"><stop offset="0%" stop-color="var(--a5)"/><stop offset="100%" stop-color="var(--a5)" stop-opacity="0"/></linearGradient>
    <linearGradient id="hl" x1="0" y1="0" x2="1" y2="0"><stop offset="0%" stop-color="#fff" stop-opacity="0"/><stop offset="50%" stop-color="#fff" stop-opacity="0.22"/><stop offset="100%" stop-color="#fff" stop-opacity="0"/></linearGradient>
    <pattern id="dots" width="22" height="22" patternUnits="userSpaceOnUse"><circle cx="1.2" cy="1.2" r="1" fill="var(--grid)"/></pattern>
    <clipPath id="clip"><rect width="1280" height="572" rx="28"/></clipPath>
  </defs>
  <g clip-path="url(#clip)">
    <rect width="1280" height="572" fill="url(#bgG)"/>
    <rect width="1280" height="572" fill="url(#dots)"/>
    <circle cx="102" cy="0" r="280" fill="url(#gl1)"><animate attributeName="cy" values="0;26;0" dur="12s" repeatCount="indefinite"/></circle><circle cx="1216" cy="572" r="300" fill="url(#gl2)"><animate attributeName="cy" values="572;598;572" dur="13s" repeatCount="indefinite"/></circle>
    <rect x="0.75" y="0.75" width="1278.5" height="570.5" rx="27.25" fill="none" stroke="url(#acc)" stroke-opacity="0.55" stroke-width="1.5"/>
    <path d="M20 32 V20 H32 M1248 20 H1260 V32 M20 540 V552 H32 M1248 552 H1260 V540" fill="none" stroke="var(--muted2)" stroke-opacity="0.45" stroke-width="1.2" stroke-linecap="round"/>
    <rect x="40" y="39" width="8" height="8" rx="2" fill="url(#acc)"/><text class="m" x="58" y="48" font-size="12" font-weight="700" letter-spacing="2.4" fill="var(--muted)">FEATURED PROJECTS</text><line x1="40" y1="62" x2="1240" y2="62" stroke="var(--border)"/><rect x="40" y="61.2" width="64" height="1.6" rx="0.8" fill="url(#accH)"/><text class="m" x="1240" y="48" font-size="11.5" letter-spacing="1" text-anchor="end" fill="var(--muted2)">2 CASE STUDIES</text>
<g opacity="0"><animate attributeName="opacity" from="0" to="1" begin="0.10s" dur="0.7s" fill="freeze"/><animateTransform attributeName="transform" type="translate" from="0 10" to="0 0" begin="0.10s" dur="0.7s" fill="freeze"/><rect x="40" y="76" width="724" height="456" rx="16" fill="url(#cardG)" stroke="var(--border)"/><rect x="56" y="76.6" width="692" height="1" fill="url(#hl)"/><rect x="60" y="75.5" width="46" height="3" rx="1.5" fill="var(--a4)"/><rect x="110" y="76" width="326" height="1.2" fill="url(#ln4)" opacity="0.7"/><path d="M738 523 H755 V506" fill="none" stroke="var(--a4)" stroke-opacity="0.55" stroke-width="1.4" stroke-linecap="round" stroke-linejoin="round"/><circle cx="87.0" cy="125.0" r="27.0" fill="none" stroke="var(--a4)" stroke-opacity="0.18" stroke-dasharray="2 3"/><circle cx="87.0" cy="125.0" r="23.0" fill="var(--a4)" fill-opacity="0.12" stroke="var(--a4)" stroke-opacity="0.45"/><g transform="translate(76.4,114.4) scale(0.8817)" fill="none" stroke="var(--a4)" stroke-width="2" stroke-linecap="round" stroke-linejoin="round" opacity="1"><path d="M21 8l-9-5-9 5v8l9 5 9-5zM3 8l9 5 9-5M12 13v8"/></g><text class="m" x="124" y="120" font-size="11" letter-spacing="2" fill="var(--a4)">CAPSTONE · FINAL YEAR PROJECT</text><text x="124" y="146" font-size="24" font-weight="800" fill="var(--text)">Artisan Aura Creations</text><g transform="translate(568.51,106)"><rect width="171" height="30" rx="15" fill="var(--a4)" fill-opacity="0.13" stroke="var(--a4)" stroke-opacity="0.6"/><g transform="translate(11.0,6.0) scale(0.7500)" fill="none" stroke="var(--a4)" stroke-width="2" stroke-linecap="round" stroke-linejoin="round" opacity="1"><path d="M12 15a6 6 0 1 0 0-12 6 6 0 0 0 0 12zM8.2 13.9L7 22l5-3 5 3-1.2-8.1"/></g><text class="m" x="34" y="19.5" font-size="11" font-weight="700" fill="var(--a4)">ICAISAI'26 · 1 OF 3</text></g><text x="64" y="184" font-size="14" font-weight="600" fill="var(--text2)">Sustainable leather goods brand · built end-to-end on Odoo ERP</text><text x="64" y="210" font-size="13" fill="var(--muted)">A direct-to-consumer brand simulating full business operations for an ethically sourced leather</text><text x="64" y="230" font-size="13" fill="var(--muted)">goods company. Exhibited at ICAISAI'26 (HSM–UMT) and evaluated by industry professionals.</text><text class="m" x="64" y="276" font-size="10.5" letter-spacing="1.8" fill="var(--muted2)">OPERATING MODEL · ODOO MODULES</text><rect x="64" y="292" width="94" height="44" rx="12" fill="var(--a5)" fill-opacity="0.10" stroke="var(--a5)" stroke-opacity="0.55"/><text x="111.0" y="319" font-size="12.5" font-weight="600" text-anchor="middle" fill="var(--text)">Marketing</text><path d="M160 314 h10" stroke="var(--muted2)" stroke-width="1.6" stroke-linecap="round"/><circle r="2.6" fill="var(--a2)"><animateMotion dur="1.8s" begin="0.0s" repeatCount="indefinite" path="M159 314 h12"/><animate attributeName="opacity" values="0;1;0" dur="1.8s" begin="0.0s" repeatCount="indefinite"/></circle><rect x="172" y="292" width="94" height="44" rx="12" fill="var(--a2)" fill-opacity="0.10" stroke="var(--a2)" stroke-opacity="0.55"/><text x="219.0" y="319" font-size="12.5" font-weight="600" text-anchor="middle" fill="var(--text)">CRM</text><path d="M268 314 h10" stroke="var(--muted2)" stroke-width="1.6" stroke-linecap="round"/><circle r="2.6" fill="var(--a2)"><animateMotion dur="1.8s" begin="0.3s" repeatCount="indefinite" path="M267 314 h12"/><animate attributeName="opacity" values="0;1;0" dur="1.8s" begin="0.3s" repeatCount="indefinite"/></circle><rect x="280" y="292" width="94" height="44" rx="12" fill="var(--a1)" fill-opacity="0.10" stroke="var(--a1)" stroke-opacity="0.55"/><text x="327.0" y="319" font-size="12.5" font-weight="600" text-anchor="middle" fill="var(--text)">Sales</text><path d="M376 314 h10" stroke="var(--muted2)" stroke-width="1.6" stroke-linecap="round"/><circle r="2.6" fill="var(--a2)"><animateMotion dur="1.8s" begin="0.6s" repeatCount="indefinite" path="M375 314 h12"/><animate attributeName="opacity" values="0;1;0" dur="1.8s" begin="0.6s" repeatCount="indefinite"/></circle><rect x="388" y="292" width="94" height="44" rx="12" fill="var(--a3)" fill-opacity="0.10" stroke="var(--a3)" stroke-opacity="0.55"/><text x="435.0" y="319" font-size="12.5" font-weight="600" text-anchor="middle" fill="var(--text)">Inventory</text><path d="M484 314 h10" stroke="var(--muted2)" stroke-width="1.6" stroke-linecap="round"/><circle r="2.6" fill="var(--a2)"><animateMotion dur="1.8s" begin="0.8999999999999999s" repeatCount="indefinite" path="M483 314 h12"/><animate attributeName="opacity" values="0;1;0" dur="1.8s" begin="0.8999999999999999s" repeatCount="indefinite"/></circle><rect x="496" y="292" width="94" height="44" rx="12" fill="var(--a4)" fill-opacity="0.10" stroke="var(--a4)" stroke-opacity="0.55"/><text x="543.0" y="319" font-size="12.5" font-weight="600" text-anchor="middle" fill="var(--text)">Procurement</text><path d="M592 314 h10" stroke="var(--muted2)" stroke-width="1.6" stroke-linecap="round"/><circle r="2.6" fill="var(--a2)"><animateMotion dur="1.8s" begin="1.2s" repeatCount="indefinite" path="M591 314 h12"/><animate attributeName="opacity" values="0;1;0" dur="1.8s" begin="1.2s" repeatCount="indefinite"/></circle><rect x="604" y="292" width="94" height="44" rx="12" fill="var(--a2)" fill-opacity="0.10" stroke="var(--a2)" stroke-opacity="0.55"/><text x="651.0" y="319" font-size="12.5" font-weight="600" text-anchor="middle" fill="var(--text)">Production</text><rect x="64" y="348" width="634" height="40" rx="12" fill="var(--a3)" fill-opacity="0.09" stroke="var(--a3)" stroke-opacity="0.5"/><g transform="translate(78.0,357.0) scale(0.8333)" fill="none" stroke="var(--a3)" stroke-width="2" stroke-linecap="round" stroke-linejoin="round" opacity="1"><path d="M12 22s8-4 8-10V5l-8-3-8 3v7c0 6 8 10 8 10zM9 12l2 2 4-4"/></g><text x="108" y="372" font-size="12.5" font-weight="600" fill="var(--text)">HR  ·  Role-based access control  ·  Data-integrity policies</text><text x="64.0" y="450" font-size="22" font-weight="800" fill="url(#accH)">1 of 3</text><text x="64.0" y="470" font-size="11.5" fill="var(--muted)">projects exhibited</text><line x1="225.0" y1="426" x2="225.0" y2="478" stroke="var(--border)"/><text x="233.0" y="450" font-size="22" font-weight="800" fill="url(#accH)">Industry</text><text x="233.0" y="470" font-size="11.5" fill="var(--muted)">professional evaluation</text><line x1="394.0" y1="426" x2="394.0" y2="478" stroke="var(--border)"/><text x="402.0" y="450" font-size="22" font-weight="800" fill="url(#accH)">4+</text><text x="402.0" y="470" font-size="11.5" fill="var(--muted)">Odoo modules integrated</text><line x1="563.0" y1="426" x2="563.0" y2="478" stroke="var(--border)"/><text x="571.0" y="450" font-size="22" font-weight="800" fill="url(#accH)">E2E</text><text x="571.0" y="470" font-size="11.5" fill="var(--muted)">procure → produce → sell</text><text class="m" x="64" y="518" font-size="11" fill="var(--muted2)">Vision: a global benchmark for ethical luxury craftsmanship · Repo on request</text></g>
<g opacity="0"><animate attributeName="opacity" from="0" to="1" begin="0.25s" dur="0.7s" fill="freeze"/><animateTransform attributeName="transform" type="translate" from="0 10" to="0 0" begin="0.25s" dur="0.7s" fill="freeze"/><rect x="784" y="76" width="456" height="456" rx="16" fill="url(#cardG)" stroke="var(--border)"/><rect x="800" y="76.6" width="424" height="1" fill="url(#hl)"/><rect x="804" y="75.5" width="46" height="3" rx="1.5" fill="var(--a2)"/><rect x="854" y="76" width="205" height="1.2" fill="url(#ln2)" opacity="0.7"/><path d="M1214 523 H1231 V506" fill="none" stroke="var(--a2)" stroke-opacity="0.55" stroke-width="1.4" stroke-linecap="round" stroke-linejoin="round"/><circle cx="831.0" cy="125.0" r="27.0" fill="none" stroke="var(--a2)" stroke-opacity="0.18" stroke-dasharray="2 3"/><circle cx="831.0" cy="125.0" r="23.0" fill="var(--a2)" fill-opacity="0.12" stroke="var(--a2)" stroke-opacity="0.45"/><g transform="translate(820.4,114.4) scale(0.8817)" fill="none" stroke="var(--a2)" stroke-width="2" stroke-linecap="round" stroke-linejoin="round" opacity="1"><path d="M4 6c0-1.7 3.6-3 8-3s8 1.3 8 3-3.6 3-8 3-8-1.3-8-3zM4 6v6c0 1.7 3.6 3 8 3s8-1.3 8-3V6M4 12v6c0 1.7 3.6 3 8 3s8-1.3 8-3v-6"/></g><text class="m" x="868" y="120" font-size="11" letter-spacing="2" fill="var(--a2)">DATABASE DESIGN · ORACLE</text><text x="868" y="146" font-size="19" font-weight="800" fill="var(--text)">Student Registration &amp; Library DB</text><text x="808" y="184" font-size="13" fill="var(--muted)">Institution-wide registration and library system designed from</text><text x="808" y="204" font-size="13" fill="var(--muted)">scratch, from conceptual modeling to physical implementation</text><text x="808" y="224" font-size="13" fill="var(--muted)">in Oracle.</text><text class="m" x="808" y="260" font-size="10.5" letter-spacing="1.8" fill="var(--muted2)">ER MODEL · CORE ENTITIES</text><path d="M988 298 H1036" stroke="var(--muted2)" stroke-width="1.6" stroke-dasharray="4 4"/><path d="M988 366 H1036" stroke="var(--muted2)" stroke-width="1.6" stroke-dasharray="4 4"/><path d="M898.0 322 V342" stroke="var(--muted2)" stroke-width="1.6" stroke-dasharray="4 4"/><path d="M1126.0 322 V342" stroke="var(--muted2)" stroke-width="1.6" stroke-dasharray="4 4"/><rect x="808" y="274" width="180" height="48" rx="12" fill="var(--a2)" fill-opacity="0.10" stroke="var(--a2)" stroke-opacity="0.55"/><rect x="808" y="274" width="180" height="20" rx="12" fill="var(--a2)" fill-opacity="0.16"/><text class="m" x="822" y="288" font-size="10.5" font-weight="700" letter-spacing="1.4" fill="var(--a2)">STUDENT</text><text class="m" x="822" y="312" font-size="10.5" fill="var(--muted)">PK · FK · constraints</text><rect x="1036" y="274" width="180" height="48" rx="12" fill="var(--a1)" fill-opacity="0.10" stroke="var(--a1)" stroke-opacity="0.55"/><rect x="1036" y="274" width="180" height="20" rx="12" fill="var(--a1)" fill-opacity="0.16"/><text class="m" x="1050" y="288" font-size="10.5" font-weight="700" letter-spacing="1.4" fill="var(--a1)">ADVISOR</text><text class="m" x="1050" y="312" font-size="10.5" fill="var(--muted)">PK · FK · constraints</text><rect x="808" y="342" width="180" height="48" rx="12" fill="var(--a3)" fill-opacity="0.10" stroke="var(--a3)" stroke-opacity="0.55"/><rect x="808" y="342" width="180" height="20" rx="12" fill="var(--a3)" fill-opacity="0.16"/><text class="m" x="822" y="356" font-size="10.5" font-weight="700" letter-spacing="1.4" fill="var(--a3)">DEPARTMENT</text><text class="m" x="822" y="380" font-size="10.5" fill="var(--muted)">PK · FK · constraints</text><rect x="1036" y="342" width="180" height="48" rx="12" fill="var(--a4)" fill-opacity="0.10" stroke="var(--a4)" stroke-opacity="0.55"/><rect x="1036" y="342" width="180" height="20" rx="12" fill="var(--a4)" fill-opacity="0.16"/><text class="m" x="1050" y="356" font-size="10.5" font-weight="700" letter-spacing="1.4" fill="var(--a4)">INSTRUCTOR</text><text class="m" x="1050" y="380" font-size="10.5" fill="var(--muted)">PK · FK · constraints</text><text class="m" x="808" y="412" font-size="10.5" letter-spacing="1.8" fill="var(--muted2)">PROCESSES COVERED</text><g transform="translate(808.0,426.0)"><g transform="translate(0.0,0.0)"><rect width="183.3" height="26" rx="13.0" fill="var(--a2)" fill-opacity="0.09" stroke="var(--a2)" stroke-opacity="0.42"/><circle cx="12" cy="13.0" r="3" fill="var(--a2)"/><text class="m" x="22" y="17.1" font-size="11.5" fill="var(--text)">Department allocation</text></g></g><g transform="translate(999.3,426.0)"><g transform="translate(0.0,0.0)"><rect width="106.1" height="26" rx="13.0" fill="var(--a2)" fill-opacity="0.09" stroke="var(--a2)" stroke-opacity="0.42"/><circle cx="12" cy="13.0" r="3" fill="var(--a2)"/><text class="m" x="22" y="17.1" font-size="11.5" fill="var(--text)">Sectioning</text></g></g><g transform="translate(808.0,460.0)"><g transform="translate(0.0,0.0)"><rect width="120.2" height="26" rx="13.0" fill="var(--a2)" fill-opacity="0.09" stroke="var(--a2)" stroke-opacity="0.42"/><circle cx="12" cy="13.0" r="3" fill="var(--a2)"/><text class="m" x="22" y="17.1" font-size="11.5" fill="var(--text)">Fee tracking</text></g></g><g transform="translate(936.2,460.0)"><g transform="translate(0.0,0.0)"><rect width="162.3" height="26" rx="13.0" fill="var(--a2)" fill-opacity="0.09" stroke="var(--a2)" stroke-opacity="0.42"/><circle cx="12" cy="13.0" r="3" fill="var(--a2)"/><text class="m" x="22" y="17.1" font-size="11.5" fill="var(--text)">Eligibility checks</text></g></g><text class="m" x="808" y="518" font-size="11" fill="var(--muted2)">Referential integrity &amp; eligibility validation</text></g>
  </g>
</svg>
