<svg xmlns="http://www.w3.org/2000/svg" viewBox="0 0 1080 654" width="1080" height="654">
<defs>
  <linearGradient id="bgMain" x1="0" y1="0" x2="1" y2="1">
    <stop offset="0%" stop-color="#080b14"/>
    <stop offset="55%" stop-color="#0d1220"/>
    <stop offset="100%" stop-color="#12182a"/>
  </linearGradient>
  <linearGradient id="cardTop" x1="0" y1="0" x2="0" y2="1">
    <stop offset="0%" stop-color="#ffffff" stop-opacity="0.05"/>
    <stop offset="100%" stop-color="#ffffff" stop-opacity="0"/>
  </linearGradient>
  <pattern id="grid" width="34" height="34" patternUnits="userSpaceOnUse">
    <path d="M34 0H0V34" fill="none" stroke="#ffffff" stroke-opacity="0.025" stroke-width="1"/>
  </pattern>
  <filter id="softGlow" x="-50%" y="-50%" width="200%" height="200%">
    <feGaussianBlur stdDeviation="7" result="blur"/>
    <feMerge><feMergeNode in="blur"/><feMergeNode in="SourceGraphic"/></feMerge>
  </filter>
</defs>
<rect x="0" y="0" width="1080" height="654" rx="18" fill="url(#bgMain)"/>
<rect x="0" y="0" width="1080" height="654" rx="18" fill="url(#grid)"/>
<rect x="0.75" y="0.75" width="1078.5" height="652.5" rx="17.5" fill="none" stroke="#242c42" stroke-width="1.2"/>
<circle cx="1020" cy="50" r="160" fill="#8b5cf6" opacity="0.055" filter="url(#softGlow)"/>
<circle cx="60" cy="594" r="160" fill="#38bdf8" opacity="0.05" filter="url(#softGlow)"/>
<text x="32" y="34" font-family="SFMono-Regular, Consolas, 'Liberation Mono', Menlo, monospace" font-size="10.5" letter-spacing="2.5" fill="#5b6478">PROFICIENCY — BY SKILL</text>
<circle cx="670.32" cy="30.50" r="4" fill="#8b5cf6"/>
<text x="681.32" y="34.00" font-family="Segoe UI, Helvetica, Arial, sans-serif" font-size="10.5" fill="#8b93a8">ADVANCED · 75%+</text>
<circle cx="792.16" cy="30.50" r="4" fill="#5eb8e0"/>
<text x="803.16" y="34.00" font-family="Segoe UI, Helvetica, Arial, sans-serif" font-size="10.5" fill="#8b93a8">INTERMEDIATE · 50–74%</text>
<circle cx="948.33" cy="30.50" r="4" fill="#4b5468"/>
<text x="959.33" y="34.00" font-family="Segoe UI, Helvetica, Arial, sans-serif" font-size="10.5" fill="#8b93a8">BASIC · &lt;50%</text>
<line x1="32" y1="54" x2="1048" y2="54" stroke="#20263a" stroke-width="1"/>
<g>
<rect x="32.00" y="102.00" width="497.00" height="520.00" rx="16" fill="#10141f" stroke="#20263a" stroke-width="1.1"/>
<rect x="32.00" y="102.00" width="497.00" height="520.00" rx="16" fill="url(#cardTop)"/>
<rect x="32.00" y="102.00" width="4" height="520.00" rx="2" fill="#38bdf8" opacity="0.85"/>
<g transform="translate(58.0,122) scale(0.7500)" fill="none" stroke="#38bdf8" stroke-width="2.1" stroke-linecap="round" stroke-linejoin="round"><path d="M16 18l6-6-6-6M8 6l-6 6 6 6"/></g>
<text x="86.00" y="135.50" font-family="Segoe UI, Helvetica, Arial, sans-serif" font-size="13" font-weight="700" letter-spacing="0.8" fill="#eef1f8">TECHNICAL SKILLS</text>
<text x="503.00" y="135.50" text-anchor="end" font-family="SFMono-Regular, Consolas, 'Liberation Mono', Menlo, monospace" font-size="10" font-weight="700" letter-spacing="0.5" fill="#38bdf8" opacity="0.9">AVG 67%</text>
<text x="58.00" y="169.50" font-family="Segoe UI, Helvetica, Arial, sans-serif" font-size="12" fill="#c7cede">SQL</text>
<rect x="222.00" y="162.00" width="9.58" height="9" rx="2" fill="#8b5cf6"/><rect x="234.18" y="162.00" width="9.58" height="9" rx="2" fill="#8b5cf6"/><rect x="246.36" y="162.00" width="9.58" height="9" rx="2" fill="#8b5cf6"/><rect x="258.54" y="162.00" width="9.58" height="9" rx="2" fill="#8b5cf6"/><rect x="270.72" y="162.00" width="9.58" height="9" rx="2" fill="#8b5cf6"/><rect x="282.90" y="162.00" width="9.58" height="9" rx="2" fill="#8b5cf6"/><rect x="295.08" y="162.00" width="9.58" height="9" rx="2" fill="#8b5cf6"/><rect x="307.26" y="162.00" width="9.58" height="9" rx="2" fill="#8b5cf6"/><rect x="319.44" y="162.00" width="9.58" height="9" rx="2" fill="#8b5cf6"/><rect x="331.62" y="162.00" width="9.58" height="9" rx="2" fill="#8b5cf6"/><rect x="343.80" y="162.00" width="9.58" height="9" rx="2" fill="#8b5cf6"/><rect x="355.98" y="162.00" width="9.58" height="9" rx="2" fill="#8b5cf6"/><rect x="368.16" y="162.00" width="9.58" height="9" rx="2" fill="#8b5cf6"/><rect x="380.34" y="162.00" width="9.58" height="9" rx="2" fill="#8b5cf6"/><rect x="392.52" y="162.00" width="9.58" height="9" rx="2" fill="#8b5cf6"/><rect x="404.70" y="162.00" width="9.58" height="9" rx="2" fill="#8b5cf6"/><rect x="416.88" y="162.00" width="9.58" height="9" rx="2" fill="#8b5cf6"/><rect x="429.06" y="162.00" width="9.58" height="9" rx="2" fill="#232a3d"/><rect x="441.24" y="162.00" width="9.58" height="9" rx="2" fill="#232a3d"/><rect x="453.42" y="162.00" width="9.58" height="9" rx="2" fill="#232a3d"/>
<text x="477.00" y="169.50" font-family="SFMono-Regular, Consolas, 'Liberation Mono', Menlo, monospace" font-size="11" font-weight="700" fill="#9aa2b8">85%</text>
<text x="58.00" y="203.50" font-family="Segoe UI, Helvetica, Arial, sans-serif" font-size="12" fill="#c7cede">Oracle DB</text>
<rect x="222.00" y="196.00" width="9.58" height="9" rx="2" fill="#8b5cf6"/><rect x="234.18" y="196.00" width="9.58" height="9" rx="2" fill="#8b5cf6"/><rect x="246.36" y="196.00" width="9.58" height="9" rx="2" fill="#8b5cf6"/><rect x="258.54" y="196.00" width="9.58" height="9" rx="2" fill="#8b5cf6"/><rect x="270.72" y="196.00" width="9.58" height="9" rx="2" fill="#8b5cf6"/><rect x="282.90" y="196.00" width="9.58" height="9" rx="2" fill="#8b5cf6"/><rect x="295.08" y="196.00" width="9.58" height="9" rx="2" fill="#8b5cf6"/><rect x="307.26" y="196.00" width="9.58" height="9" rx="2" fill="#8b5cf6"/><rect x="319.44" y="196.00" width="9.58" height="9" rx="2" fill="#8b5cf6"/><rect x="331.62" y="196.00" width="9.58" height="9" rx="2" fill="#8b5cf6"/><rect x="343.80" y="196.00" width="9.58" height="9" rx="2" fill="#8b5cf6"/><rect x="355.98" y="196.00" width="9.58" height="9" rx="2" fill="#8b5cf6"/><rect x="368.16" y="196.00" width="9.58" height="9" rx="2" fill="#8b5cf6"/><rect x="380.34" y="196.00" width="9.58" height="9" rx="2" fill="#8b5cf6"/><rect x="392.52" y="196.00" width="9.58" height="9" rx="2" fill="#8b5cf6"/><rect x="404.70" y="196.00" width="9.58" height="9" rx="2" fill="#8b5cf6"/><rect x="416.88" y="196.00" width="9.58" height="9" rx="2" fill="#8b5cf6"/><rect x="429.06" y="196.00" width="9.58" height="9" rx="2" fill="#232a3d"/><rect x="441.24" y="196.00" width="9.58" height="9" rx="2" fill="#232a3d"/><rect x="453.42" y="196.00" width="9.58" height="9" rx="2" fill="#232a3d"/>
<text x="477.00" y="203.50" font-family="SFMono-Regular, Consolas, 'Liberation Mono', Menlo, monospace" font-size="11" font-weight="700" fill="#9aa2b8">85%</text>
<text x="58.00" y="237.50" font-family="Segoe UI, Helvetica, Arial, sans-serif" font-size="12" fill="#c7cede">HTML / CSS</text>
<rect x="222.00" y="230.00" width="9.58" height="9" rx="2" fill="#8b5cf6"/><rect x="234.18" y="230.00" width="9.58" height="9" rx="2" fill="#8b5cf6"/><rect x="246.36" y="230.00" width="9.58" height="9" rx="2" fill="#8b5cf6"/><rect x="258.54" y="230.00" width="9.58" height="9" rx="2" fill="#8b5cf6"/><rect x="270.72" y="230.00" width="9.58" height="9" rx="2" fill="#8b5cf6"/><rect x="282.90" y="230.00" width="9.58" height="9" rx="2" fill="#8b5cf6"/><rect x="295.08" y="230.00" width="9.58" height="9" rx="2" fill="#8b5cf6"/><rect x="307.26" y="230.00" width="9.58" height="9" rx="2" fill="#8b5cf6"/><rect x="319.44" y="230.00" width="9.58" height="9" rx="2" fill="#8b5cf6"/><rect x="331.62" y="230.00" width="9.58" height="9" rx="2" fill="#8b5cf6"/><rect x="343.80" y="230.00" width="9.58" height="9" rx="2" fill="#8b5cf6"/><rect x="355.98" y="230.00" width="9.58" height="9" rx="2" fill="#8b5cf6"/><rect x="368.16" y="230.00" width="9.58" height="9" rx="2" fill="#8b5cf6"/><rect x="380.34" y="230.00" width="9.58" height="9" rx="2" fill="#8b5cf6"/><rect x="392.52" y="230.00" width="9.58" height="9" rx="2" fill="#8b5cf6"/><rect x="404.70" y="230.00" width="9.58" height="9" rx="2" fill="#8b5cf6"/><rect x="416.88" y="230.00" width="9.58" height="9" rx="2" fill="#232a3d"/><rect x="429.06" y="230.00" width="9.58" height="9" rx="2" fill="#232a3d"/><rect x="441.24" y="230.00" width="9.58" height="9" rx="2" fill="#232a3d"/><rect x="453.42" y="230.00" width="9.58" height="9" rx="2" fill="#232a3d"/>
<text x="477.00" y="237.50" font-family="SFMono-Regular, Consolas, 'Liberation Mono', Menlo, monospace" font-size="11" font-weight="700" fill="#9aa2b8">80%</text>
<text x="58.00" y="271.50" font-family="Segoe UI, Helvetica, Arial, sans-serif" font-size="12" fill="#c7cede">Figma</text>
<rect x="222.00" y="264.00" width="9.58" height="9" rx="2" fill="#8b5cf6"/><rect x="234.18" y="264.00" width="9.58" height="9" rx="2" fill="#8b5cf6"/><rect x="246.36" y="264.00" width="9.58" height="9" rx="2" fill="#8b5cf6"/><rect x="258.54" y="264.00" width="9.58" height="9" rx="2" fill="#8b5cf6"/><rect x="270.72" y="264.00" width="9.58" height="9" rx="2" fill="#8b5cf6"/><rect x="282.90" y="264.00" width="9.58" height="9" rx="2" fill="#8b5cf6"/><rect x="295.08" y="264.00" width="9.58" height="9" rx="2" fill="#8b5cf6"/><rect x="307.26" y="264.00" width="9.58" height="9" rx="2" fill="#8b5cf6"/><rect x="319.44" y="264.00" width="9.58" height="9" rx="2" fill="#8b5cf6"/><rect x="331.62" y="264.00" width="9.58" height="9" rx="2" fill="#8b5cf6"/><rect x="343.80" y="264.00" width="9.58" height="9" rx="2" fill="#8b5cf6"/><rect x="355.98" y="264.00" width="9.58" height="9" rx="2" fill="#8b5cf6"/><rect x="368.16" y="264.00" width="9.58" height="9" rx="2" fill="#8b5cf6"/><rect x="380.34" y="264.00" width="9.58" height="9" rx="2" fill="#8b5cf6"/><rect x="392.52" y="264.00" width="9.58" height="9" rx="2" fill="#8b5cf6"/><rect x="404.70" y="264.00" width="9.58" height="9" rx="2" fill="#8b5cf6"/><rect x="416.88" y="264.00" width="9.58" height="9" rx="2" fill="#232a3d"/><rect x="429.06" y="264.00" width="9.58" height="9" rx="2" fill="#232a3d"/><rect x="441.24" y="264.00" width="9.58" height="9" rx="2" fill="#232a3d"/><rect x="453.42" y="264.00" width="9.58" height="9" rx="2" fill="#232a3d"/>
<text x="477.00" y="271.50" font-family="SFMono-Regular, Consolas, 'Liberation Mono', Menlo, monospace" font-size="11" font-weight="700" fill="#9aa2b8">80%</text>
<text x="58.00" y="305.50" font-family="Segoe UI, Helvetica, Arial, sans-serif" font-size="12" fill="#c7cede">Odoo ERP</text>
<rect x="222.00" y="298.00" width="9.58" height="9" rx="2" fill="#8b5cf6"/><rect x="234.18" y="298.00" width="9.58" height="9" rx="2" fill="#8b5cf6"/><rect x="246.36" y="298.00" width="9.58" height="9" rx="2" fill="#8b5cf6"/><rect x="258.54" y="298.00" width="9.58" height="9" rx="2" fill="#8b5cf6"/><rect x="270.72" y="298.00" width="9.58" height="9" rx="2" fill="#8b5cf6"/><rect x="282.90" y="298.00" width="9.58" height="9" rx="2" fill="#8b5cf6"/><rect x="295.08" y="298.00" width="9.58" height="9" rx="2" fill="#8b5cf6"/><rect x="307.26" y="298.00" width="9.58" height="9" rx="2" fill="#8b5cf6"/><rect x="319.44" y="298.00" width="9.58" height="9" rx="2" fill="#8b5cf6"/><rect x="331.62" y="298.00" width="9.58" height="9" rx="2" fill="#8b5cf6"/><rect x="343.80" y="298.00" width="9.58" height="9" rx="2" fill="#8b5cf6"/><rect x="355.98" y="298.00" width="9.58" height="9" rx="2" fill="#8b5cf6"/><rect x="368.16" y="298.00" width="9.58" height="9" rx="2" fill="#8b5cf6"/><rect x="380.34" y="298.00" width="9.58" height="9" rx="2" fill="#8b5cf6"/><rect x="392.52" y="298.00" width="9.58" height="9" rx="2" fill="#8b5cf6"/><rect x="404.70" y="298.00" width="9.58" height="9" rx="2" fill="#8b5cf6"/><rect x="416.88" y="298.00" width="9.58" height="9" rx="2" fill="#232a3d"/><rect x="429.06" y="298.00" width="9.58" height="9" rx="2" fill="#232a3d"/><rect x="441.24" y="298.00" width="9.58" height="9" rx="2" fill="#232a3d"/><rect x="453.42" y="298.00" width="9.58" height="9" rx="2" fill="#232a3d"/>
<text x="477.00" y="305.50" font-family="SFMono-Regular, Consolas, 'Liberation Mono', Menlo, monospace" font-size="11" font-weight="700" fill="#9aa2b8">80%</text>
<text x="58.00" y="339.50" font-family="Segoe UI, Helvetica, Arial, sans-serif" font-size="12" fill="#c7cede">GitHub</text>
<rect x="222.00" y="332.00" width="9.58" height="9" rx="2" fill="#8b5cf6"/><rect x="234.18" y="332.00" width="9.58" height="9" rx="2" fill="#8b5cf6"/><rect x="246.36" y="332.00" width="9.58" height="9" rx="2" fill="#8b5cf6"/><rect x="258.54" y="332.00" width="9.58" height="9" rx="2" fill="#8b5cf6"/><rect x="270.72" y="332.00" width="9.58" height="9" rx="2" fill="#8b5cf6"/><rect x="282.90" y="332.00" width="9.58" height="9" rx="2" fill="#8b5cf6"/><rect x="295.08" y="332.00" width="9.58" height="9" rx="2" fill="#8b5cf6"/><rect x="307.26" y="332.00" width="9.58" height="9" rx="2" fill="#8b5cf6"/><rect x="319.44" y="332.00" width="9.58" height="9" rx="2" fill="#8b5cf6"/><rect x="331.62" y="332.00" width="9.58" height="9" rx="2" fill="#8b5cf6"/><rect x="343.80" y="332.00" width="9.58" height="9" rx="2" fill="#8b5cf6"/><rect x="355.98" y="332.00" width="9.58" height="9" rx="2" fill="#8b5cf6"/><rect x="368.16" y="332.00" width="9.58" height="9" rx="2" fill="#8b5cf6"/><rect x="380.34" y="332.00" width="9.58" height="9" rx="2" fill="#8b5cf6"/><rect x="392.52" y="332.00" width="9.58" height="9" rx="2" fill="#8b5cf6"/><rect x="404.70" y="332.00" width="9.58" height="9" rx="2" fill="#232a3d"/><rect x="416.88" y="332.00" width="9.58" height="9" rx="2" fill="#232a3d"/><rect x="429.06" y="332.00" width="9.58" height="9" rx="2" fill="#232a3d"/><rect x="441.24" y="332.00" width="9.58" height="9" rx="2" fill="#232a3d"/><rect x="453.42" y="332.00" width="9.58" height="9" rx="2" fill="#232a3d"/>
<text x="477.00" y="339.50" font-family="SFMono-Regular, Consolas, 'Liberation Mono', Menlo, monospace" font-size="11" font-weight="700" fill="#9aa2b8">75%</text>
<text x="58.00" y="373.50" font-family="Segoe UI, Helvetica, Arial, sans-serif" font-size="12" fill="#c7cede">Power BI</text>
<rect x="222.00" y="366.00" width="9.58" height="9" rx="2" fill="#5eb8e0"/><rect x="234.18" y="366.00" width="9.58" height="9" rx="2" fill="#5eb8e0"/><rect x="246.36" y="366.00" width="9.58" height="9" rx="2" fill="#5eb8e0"/><rect x="258.54" y="366.00" width="9.58" height="9" rx="2" fill="#5eb8e0"/><rect x="270.72" y="366.00" width="9.58" height="9" rx="2" fill="#5eb8e0"/><rect x="282.90" y="366.00" width="9.58" height="9" rx="2" fill="#5eb8e0"/><rect x="295.08" y="366.00" width="9.58" height="9" rx="2" fill="#5eb8e0"/><rect x="307.26" y="366.00" width="9.58" height="9" rx="2" fill="#5eb8e0"/><rect x="319.44" y="366.00" width="9.58" height="9" rx="2" fill="#5eb8e0"/><rect x="331.62" y="366.00" width="9.58" height="9" rx="2" fill="#5eb8e0"/><rect x="343.80" y="366.00" width="9.58" height="9" rx="2" fill="#5eb8e0"/><rect x="355.98" y="366.00" width="9.58" height="9" rx="2" fill="#5eb8e0"/><rect x="368.16" y="366.00" width="9.58" height="9" rx="2" fill="#5eb8e0"/><rect x="380.34" y="366.00" width="9.58" height="9" rx="2" fill="#5eb8e0"/><rect x="392.52" y="366.00" width="9.58" height="9" rx="2" fill="#232a3d"/><rect x="404.70" y="366.00" width="9.58" height="9" rx="2" fill="#232a3d"/><rect x="416.88" y="366.00" width="9.58" height="9" rx="2" fill="#232a3d"/><rect x="429.06" y="366.00" width="9.58" height="9" rx="2" fill="#232a3d"/><rect x="441.24" y="366.00" width="9.58" height="9" rx="2" fill="#232a3d"/><rect x="453.42" y="366.00" width="9.58" height="9" rx="2" fill="#232a3d"/>
<text x="477.00" y="373.50" font-family="SFMono-Regular, Consolas, 'Liberation Mono', Menlo, monospace" font-size="11" font-weight="700" fill="#9aa2b8">70%</text>
<text x="58.00" y="407.50" font-family="Segoe UI, Helvetica, Arial, sans-serif" font-size="12" fill="#c7cede">SAP ERP</text>
<rect x="222.00" y="400.00" width="9.58" height="9" rx="2" fill="#5eb8e0"/><rect x="234.18" y="400.00" width="9.58" height="9" rx="2" fill="#5eb8e0"/><rect x="246.36" y="400.00" width="9.58" height="9" rx="2" fill="#5eb8e0"/><rect x="258.54" y="400.00" width="9.58" height="9" rx="2" fill="#5eb8e0"/><rect x="270.72" y="400.00" width="9.58" height="9" rx="2" fill="#5eb8e0"/><rect x="282.90" y="400.00" width="9.58" height="9" rx="2" fill="#5eb8e0"/><rect x="295.08" y="400.00" width="9.58" height="9" rx="2" fill="#5eb8e0"/><rect x="307.26" y="400.00" width="9.58" height="9" rx="2" fill="#5eb8e0"/><rect x="319.44" y="400.00" width="9.58" height="9" rx="2" fill="#5eb8e0"/><rect x="331.62" y="400.00" width="9.58" height="9" rx="2" fill="#5eb8e0"/><rect x="343.80" y="400.00" width="9.58" height="9" rx="2" fill="#5eb8e0"/><rect x="355.98" y="400.00" width="9.58" height="9" rx="2" fill="#5eb8e0"/><rect x="368.16" y="400.00" width="9.58" height="9" rx="2" fill="#5eb8e0"/><rect x="380.34" y="400.00" width="9.58" height="9" rx="2" fill="#232a3d"/><rect x="392.52" y="400.00" width="9.58" height="9" rx="2" fill="#232a3d"/><rect x="404.70" y="400.00" width="9.58" height="9" rx="2" fill="#232a3d"/><rect x="416.88" y="400.00" width="9.58" height="9" rx="2" fill="#232a3d"/><rect x="429.06" y="400.00" width="9.58" height="9" rx="2" fill="#232a3d"/><rect x="441.24" y="400.00" width="9.58" height="9" rx="2" fill="#232a3d"/><rect x="453.42" y="400.00" width="9.58" height="9" rx="2" fill="#232a3d"/>
<text x="477.00" y="407.50" font-family="SFMono-Regular, Consolas, 'Liberation Mono', Menlo, monospace" font-size="11" font-weight="700" fill="#9aa2b8">65%</text>
<text x="58.00" y="441.50" font-family="Segoe UI, Helvetica, Arial, sans-serif" font-size="12" fill="#c7cede">WordPress</text>
<rect x="222.00" y="434.00" width="9.58" height="9" rx="2" fill="#5eb8e0"/><rect x="234.18" y="434.00" width="9.58" height="9" rx="2" fill="#5eb8e0"/><rect x="246.36" y="434.00" width="9.58" height="9" rx="2" fill="#5eb8e0"/><rect x="258.54" y="434.00" width="9.58" height="9" rx="2" fill="#5eb8e0"/><rect x="270.72" y="434.00" width="9.58" height="9" rx="2" fill="#5eb8e0"/><rect x="282.90" y="434.00" width="9.58" height="9" rx="2" fill="#5eb8e0"/><rect x="295.08" y="434.00" width="9.58" height="9" rx="2" fill="#5eb8e0"/><rect x="307.26" y="434.00" width="9.58" height="9" rx="2" fill="#5eb8e0"/><rect x="319.44" y="434.00" width="9.58" height="9" rx="2" fill="#5eb8e0"/><rect x="331.62" y="434.00" width="9.58" height="9" rx="2" fill="#5eb8e0"/><rect x="343.80" y="434.00" width="9.58" height="9" rx="2" fill="#5eb8e0"/><rect x="355.98" y="434.00" width="9.58" height="9" rx="2" fill="#5eb8e0"/><rect x="368.16" y="434.00" width="9.58" height="9" rx="2" fill="#5eb8e0"/><rect x="380.34" y="434.00" width="9.58" height="9" rx="2" fill="#232a3d"/><rect x="392.52" y="434.00" width="9.58" height="9" rx="2" fill="#232a3d"/><rect x="404.70" y="434.00" width="9.58" height="9" rx="2" fill="#232a3d"/><rect x="416.88" y="434.00" width="9.58" height="9" rx="2" fill="#232a3d"/><rect x="429.06" y="434.00" width="9.58" height="9" rx="2" fill="#232a3d"/><rect x="441.24" y="434.00" width="9.58" height="9" rx="2" fill="#232a3d"/><rect x="453.42" y="434.00" width="9.58" height="9" rx="2" fill="#232a3d"/>
<text x="477.00" y="441.50" font-family="SFMono-Regular, Consolas, 'Liberation Mono', Menlo, monospace" font-size="11" font-weight="700" fill="#9aa2b8">65%</text>
<text x="58.00" y="475.50" font-family="Segoe UI, Helvetica, Arial, sans-serif" font-size="12" fill="#c7cede">Python</text>
<rect x="222.00" y="468.00" width="9.58" height="9" rx="2" fill="#5eb8e0"/><rect x="234.18" y="468.00" width="9.58" height="9" rx="2" fill="#5eb8e0"/><rect x="246.36" y="468.00" width="9.58" height="9" rx="2" fill="#5eb8e0"/><rect x="258.54" y="468.00" width="9.58" height="9" rx="2" fill="#5eb8e0"/><rect x="270.72" y="468.00" width="9.58" height="9" rx="2" fill="#5eb8e0"/><rect x="282.90" y="468.00" width="9.58" height="9" rx="2" fill="#5eb8e0"/><rect x="295.08" y="468.00" width="9.58" height="9" rx="2" fill="#5eb8e0"/><rect x="307.26" y="468.00" width="9.58" height="9" rx="2" fill="#5eb8e0"/><rect x="319.44" y="468.00" width="9.58" height="9" rx="2" fill="#5eb8e0"/><rect x="331.62" y="468.00" width="9.58" height="9" rx="2" fill="#5eb8e0"/><rect x="343.80" y="468.00" width="9.58" height="9" rx="2" fill="#5eb8e0"/><rect x="355.98" y="468.00" width="9.58" height="9" rx="2" fill="#5eb8e0"/><rect x="368.16" y="468.00" width="9.58" height="9" rx="2" fill="#232a3d"/><rect x="380.34" y="468.00" width="9.58" height="9" rx="2" fill="#232a3d"/><rect x="392.52" y="468.00" width="9.58" height="9" rx="2" fill="#232a3d"/><rect x="404.70" y="468.00" width="9.58" height="9" rx="2" fill="#232a3d"/><rect x="416.88" y="468.00" width="9.58" height="9" rx="2" fill="#232a3d"/><rect x="429.06" y="468.00" width="9.58" height="9" rx="2" fill="#232a3d"/><rect x="441.24" y="468.00" width="9.58" height="9" rx="2" fill="#232a3d"/><rect x="453.42" y="468.00" width="9.58" height="9" rx="2" fill="#232a3d"/>
<text x="477.00" y="475.50" font-family="SFMono-Regular, Consolas, 'Liberation Mono', Menlo, monospace" font-size="11" font-weight="700" fill="#9aa2b8">60%</text>
<text x="58.00" y="509.50" font-family="Segoe UI, Helvetica, Arial, sans-serif" font-size="12" fill="#c7cede">Jira (SCRUM)</text>
<rect x="222.00" y="502.00" width="9.58" height="9" rx="2" fill="#5eb8e0"/><rect x="234.18" y="502.00" width="9.58" height="9" rx="2" fill="#5eb8e0"/><rect x="246.36" y="502.00" width="9.58" height="9" rx="2" fill="#5eb8e0"/><rect x="258.54" y="502.00" width="9.58" height="9" rx="2" fill="#5eb8e0"/><rect x="270.72" y="502.00" width="9.58" height="9" rx="2" fill="#5eb8e0"/><rect x="282.90" y="502.00" width="9.58" height="9" rx="2" fill="#5eb8e0"/><rect x="295.08" y="502.00" width="9.58" height="9" rx="2" fill="#5eb8e0"/><rect x="307.26" y="502.00" width="9.58" height="9" rx="2" fill="#5eb8e0"/><rect x="319.44" y="502.00" width="9.58" height="9" rx="2" fill="#5eb8e0"/><rect x="331.62" y="502.00" width="9.58" height="9" rx="2" fill="#5eb8e0"/><rect x="343.80" y="502.00" width="9.58" height="9" rx="2" fill="#5eb8e0"/><rect x="355.98" y="502.00" width="9.58" height="9" rx="2" fill="#5eb8e0"/><rect x="368.16" y="502.00" width="9.58" height="9" rx="2" fill="#232a3d"/><rect x="380.34" y="502.00" width="9.58" height="9" rx="2" fill="#232a3d"/><rect x="392.52" y="502.00" width="9.58" height="9" rx="2" fill="#232a3d"/><rect x="404.70" y="502.00" width="9.58" height="9" rx="2" fill="#232a3d"/><rect x="416.88" y="502.00" width="9.58" height="9" rx="2" fill="#232a3d"/><rect x="429.06" y="502.00" width="9.58" height="9" rx="2" fill="#232a3d"/><rect x="441.24" y="502.00" width="9.58" height="9" rx="2" fill="#232a3d"/><rect x="453.42" y="502.00" width="9.58" height="9" rx="2" fill="#232a3d"/>
<text x="477.00" y="509.50" font-family="SFMono-Regular, Consolas, 'Liberation Mono', Menlo, monospace" font-size="11" font-weight="700" fill="#9aa2b8">60%</text>
<text x="58.00" y="543.50" font-family="Segoe UI, Helvetica, Arial, sans-serif" font-size="12" fill="#c7cede">JavaScript</text>
<rect x="222.00" y="536.00" width="9.58" height="9" rx="2" fill="#4b5468"/><rect x="234.18" y="536.00" width="9.58" height="9" rx="2" fill="#4b5468"/><rect x="246.36" y="536.00" width="9.58" height="9" rx="2" fill="#4b5468"/><rect x="258.54" y="536.00" width="9.58" height="9" rx="2" fill="#4b5468"/><rect x="270.72" y="536.00" width="9.58" height="9" rx="2" fill="#4b5468"/><rect x="282.90" y="536.00" width="9.58" height="9" rx="2" fill="#4b5468"/><rect x="295.08" y="536.00" width="9.58" height="9" rx="2" fill="#4b5468"/><rect x="307.26" y="536.00" width="9.58" height="9" rx="2" fill="#232a3d"/><rect x="319.44" y="536.00" width="9.58" height="9" rx="2" fill="#232a3d"/><rect x="331.62" y="536.00" width="9.58" height="9" rx="2" fill="#232a3d"/><rect x="343.80" y="536.00" width="9.58" height="9" rx="2" fill="#232a3d"/><rect x="355.98" y="536.00" width="9.58" height="9" rx="2" fill="#232a3d"/><rect x="368.16" y="536.00" width="9.58" height="9" rx="2" fill="#232a3d"/><rect x="380.34" y="536.00" width="9.58" height="9" rx="2" fill="#232a3d"/><rect x="392.52" y="536.00" width="9.58" height="9" rx="2" fill="#232a3d"/><rect x="404.70" y="536.00" width="9.58" height="9" rx="2" fill="#232a3d"/><rect x="416.88" y="536.00" width="9.58" height="9" rx="2" fill="#232a3d"/><rect x="429.06" y="536.00" width="9.58" height="9" rx="2" fill="#232a3d"/><rect x="441.24" y="536.00" width="9.58" height="9" rx="2" fill="#232a3d"/><rect x="453.42" y="536.00" width="9.58" height="9" rx="2" fill="#232a3d"/>
<text x="477.00" y="543.50" font-family="SFMono-Regular, Consolas, 'Liberation Mono', Menlo, monospace" font-size="11" font-weight="700" fill="#9aa2b8">35%</text>
<text x="58.00" y="577.50" font-family="Segoe UI, Helvetica, Arial, sans-serif" font-size="12" fill="#c7cede">C++</text>
<rect x="222.00" y="570.00" width="9.58" height="9" rx="2" fill="#4b5468"/><rect x="234.18" y="570.00" width="9.58" height="9" rx="2" fill="#4b5468"/><rect x="246.36" y="570.00" width="9.58" height="9" rx="2" fill="#4b5468"/><rect x="258.54" y="570.00" width="9.58" height="9" rx="2" fill="#4b5468"/><rect x="270.72" y="570.00" width="9.58" height="9" rx="2" fill="#4b5468"/><rect x="282.90" y="570.00" width="9.58" height="9" rx="2" fill="#4b5468"/><rect x="295.08" y="570.00" width="9.58" height="9" rx="2" fill="#232a3d"/><rect x="307.26" y="570.00" width="9.58" height="9" rx="2" fill="#232a3d"/><rect x="319.44" y="570.00" width="9.58" height="9" rx="2" fill="#232a3d"/><rect x="331.62" y="570.00" width="9.58" height="9" rx="2" fill="#232a3d"/><rect x="343.80" y="570.00" width="9.58" height="9" rx="2" fill="#232a3d"/><rect x="355.98" y="570.00" width="9.58" height="9" rx="2" fill="#232a3d"/><rect x="368.16" y="570.00" width="9.58" height="9" rx="2" fill="#232a3d"/><rect x="380.34" y="570.00" width="9.58" height="9" rx="2" fill="#232a3d"/><rect x="392.52" y="570.00" width="9.58" height="9" rx="2" fill="#232a3d"/><rect x="404.70" y="570.00" width="9.58" height="9" rx="2" fill="#232a3d"/><rect x="416.88" y="570.00" width="9.58" height="9" rx="2" fill="#232a3d"/><rect x="429.06" y="570.00" width="9.58" height="9" rx="2" fill="#232a3d"/><rect x="441.24" y="570.00" width="9.58" height="9" rx="2" fill="#232a3d"/><rect x="453.42" y="570.00" width="9.58" height="9" rx="2" fill="#232a3d"/>
<text x="477.00" y="577.50" font-family="SFMono-Regular, Consolas, 'Liberation Mono', Menlo, monospace" font-size="11" font-weight="700" fill="#9aa2b8">30%</text>
</g>
<g>
<rect x="551.00" y="102.00" width="497.00" height="248.00" rx="16" fill="#10141f" stroke="#20263a" stroke-width="1.1"/>
<rect x="551.00" y="102.00" width="497.00" height="248.00" rx="16" fill="url(#cardTop)"/>
<rect x="551.00" y="102.00" width="4" height="248.00" rx="2" fill="#34d399" opacity="0.85"/>
<g transform="translate(577.0,122) scale(0.7500)" fill="none" stroke="#34d399" stroke-width="2.1" stroke-linecap="round" stroke-linejoin="round"><path d="M12 19l7-7 3 3-7 7-3-3z"/><path d="M18 13l-1.5-7.5L2 2l3.5 14.5L13 18l5-5z"/><path d="M2 2l7.6 7.6"/><circle cx="11" cy="11" r="2"/></g>
<text x="605.00" y="135.50" font-family="Segoe UI, Helvetica, Arial, sans-serif" font-size="13" font-weight="700" letter-spacing="0.8" fill="#eef1f8">CREATIVE &amp; DESIGN</text>
<text x="1022.00" y="135.50" text-anchor="end" font-family="SFMono-Regular, Consolas, 'Liberation Mono', Menlo, monospace" font-size="10" font-weight="700" letter-spacing="0.5" fill="#34d399" opacity="0.9">AVG 72%</text>
<text x="577.00" y="169.50" font-family="Segoe UI, Helvetica, Arial, sans-serif" font-size="12" fill="#c7cede">Photoshop</text>
<rect x="741.00" y="162.00" width="9.58" height="9" rx="2" fill="#8b5cf6"/><rect x="753.18" y="162.00" width="9.58" height="9" rx="2" fill="#8b5cf6"/><rect x="765.36" y="162.00" width="9.58" height="9" rx="2" fill="#8b5cf6"/><rect x="777.54" y="162.00" width="9.58" height="9" rx="2" fill="#8b5cf6"/><rect x="789.72" y="162.00" width="9.58" height="9" rx="2" fill="#8b5cf6"/><rect x="801.90" y="162.00" width="9.58" height="9" rx="2" fill="#8b5cf6"/><rect x="814.08" y="162.00" width="9.58" height="9" rx="2" fill="#8b5cf6"/><rect x="826.26" y="162.00" width="9.58" height="9" rx="2" fill="#8b5cf6"/><rect x="838.44" y="162.00" width="9.58" height="9" rx="2" fill="#8b5cf6"/><rect x="850.62" y="162.00" width="9.58" height="9" rx="2" fill="#8b5cf6"/><rect x="862.80" y="162.00" width="9.58" height="9" rx="2" fill="#8b5cf6"/><rect x="874.98" y="162.00" width="9.58" height="9" rx="2" fill="#8b5cf6"/><rect x="887.16" y="162.00" width="9.58" height="9" rx="2" fill="#8b5cf6"/><rect x="899.34" y="162.00" width="9.58" height="9" rx="2" fill="#8b5cf6"/><rect x="911.52" y="162.00" width="9.58" height="9" rx="2" fill="#8b5cf6"/><rect x="923.70" y="162.00" width="9.58" height="9" rx="2" fill="#8b5cf6"/><rect x="935.88" y="162.00" width="9.58" height="9" rx="2" fill="#232a3d"/><rect x="948.06" y="162.00" width="9.58" height="9" rx="2" fill="#232a3d"/><rect x="960.24" y="162.00" width="9.58" height="9" rx="2" fill="#232a3d"/><rect x="972.42" y="162.00" width="9.58" height="9" rx="2" fill="#232a3d"/>
<text x="996.00" y="169.50" font-family="SFMono-Regular, Consolas, 'Liberation Mono', Menlo, monospace" font-size="11" font-weight="700" fill="#9aa2b8">80%</text>
<text x="577.00" y="203.50" font-family="Segoe UI, Helvetica, Arial, sans-serif" font-size="12" fill="#c7cede">Canva</text>
<rect x="741.00" y="196.00" width="9.58" height="9" rx="2" fill="#8b5cf6"/><rect x="753.18" y="196.00" width="9.58" height="9" rx="2" fill="#8b5cf6"/><rect x="765.36" y="196.00" width="9.58" height="9" rx="2" fill="#8b5cf6"/><rect x="777.54" y="196.00" width="9.58" height="9" rx="2" fill="#8b5cf6"/><rect x="789.72" y="196.00" width="9.58" height="9" rx="2" fill="#8b5cf6"/><rect x="801.90" y="196.00" width="9.58" height="9" rx="2" fill="#8b5cf6"/><rect x="814.08" y="196.00" width="9.58" height="9" rx="2" fill="#8b5cf6"/><rect x="826.26" y="196.00" width="9.58" height="9" rx="2" fill="#8b5cf6"/><rect x="838.44" y="196.00" width="9.58" height="9" rx="2" fill="#8b5cf6"/><rect x="850.62" y="196.00" width="9.58" height="9" rx="2" fill="#8b5cf6"/><rect x="862.80" y="196.00" width="9.58" height="9" rx="2" fill="#8b5cf6"/><rect x="874.98" y="196.00" width="9.58" height="9" rx="2" fill="#8b5cf6"/><rect x="887.16" y="196.00" width="9.58" height="9" rx="2" fill="#8b5cf6"/><rect x="899.34" y="196.00" width="9.58" height="9" rx="2" fill="#8b5cf6"/><rect x="911.52" y="196.00" width="9.58" height="9" rx="2" fill="#8b5cf6"/><rect x="923.70" y="196.00" width="9.58" height="9" rx="2" fill="#8b5cf6"/><rect x="935.88" y="196.00" width="9.58" height="9" rx="2" fill="#232a3d"/><rect x="948.06" y="196.00" width="9.58" height="9" rx="2" fill="#232a3d"/><rect x="960.24" y="196.00" width="9.58" height="9" rx="2" fill="#232a3d"/><rect x="972.42" y="196.00" width="9.58" height="9" rx="2" fill="#232a3d"/>
<text x="996.00" y="203.50" font-family="SFMono-Regular, Consolas, 'Liberation Mono', Menlo, monospace" font-size="11" font-weight="700" fill="#9aa2b8">80%</text>
<text x="577.00" y="237.50" font-family="Segoe UI, Helvetica, Arial, sans-serif" font-size="12" fill="#c7cede">Illustrator</text>
<rect x="741.00" y="230.00" width="9.58" height="9" rx="2" fill="#8b5cf6"/><rect x="753.18" y="230.00" width="9.58" height="9" rx="2" fill="#8b5cf6"/><rect x="765.36" y="230.00" width="9.58" height="9" rx="2" fill="#8b5cf6"/><rect x="777.54" y="230.00" width="9.58" height="9" rx="2" fill="#8b5cf6"/><rect x="789.72" y="230.00" width="9.58" height="9" rx="2" fill="#8b5cf6"/><rect x="801.90" y="230.00" width="9.58" height="9" rx="2" fill="#8b5cf6"/><rect x="814.08" y="230.00" width="9.58" height="9" rx="2" fill="#8b5cf6"/><rect x="826.26" y="230.00" width="9.58" height="9" rx="2" fill="#8b5cf6"/><rect x="838.44" y="230.00" width="9.58" height="9" rx="2" fill="#8b5cf6"/><rect x="850.62" y="230.00" width="9.58" height="9" rx="2" fill="#8b5cf6"/><rect x="862.80" y="230.00" width="9.58" height="9" rx="2" fill="#8b5cf6"/><rect x="874.98" y="230.00" width="9.58" height="9" rx="2" fill="#8b5cf6"/><rect x="887.16" y="230.00" width="9.58" height="9" rx="2" fill="#8b5cf6"/><rect x="899.34" y="230.00" width="9.58" height="9" rx="2" fill="#8b5cf6"/><rect x="911.52" y="230.00" width="9.58" height="9" rx="2" fill="#8b5cf6"/><rect x="923.70" y="230.00" width="9.58" height="9" rx="2" fill="#232a3d"/><rect x="935.88" y="230.00" width="9.58" height="9" rx="2" fill="#232a3d"/><rect x="948.06" y="230.00" width="9.58" height="9" rx="2" fill="#232a3d"/><rect x="960.24" y="230.00" width="9.58" height="9" rx="2" fill="#232a3d"/><rect x="972.42" y="230.00" width="9.58" height="9" rx="2" fill="#232a3d"/>
<text x="996.00" y="237.50" font-family="SFMono-Regular, Consolas, 'Liberation Mono', Menlo, monospace" font-size="11" font-weight="700" fill="#9aa2b8">75%</text>
<text x="577.00" y="271.50" font-family="Segoe UI, Helvetica, Arial, sans-serif" font-size="12" fill="#c7cede">Premiere Pro</text>
<rect x="741.00" y="264.00" width="9.58" height="9" rx="2" fill="#5eb8e0"/><rect x="753.18" y="264.00" width="9.58" height="9" rx="2" fill="#5eb8e0"/><rect x="765.36" y="264.00" width="9.58" height="9" rx="2" fill="#5eb8e0"/><rect x="777.54" y="264.00" width="9.58" height="9" rx="2" fill="#5eb8e0"/><rect x="789.72" y="264.00" width="9.58" height="9" rx="2" fill="#5eb8e0"/><rect x="801.90" y="264.00" width="9.58" height="9" rx="2" fill="#5eb8e0"/><rect x="814.08" y="264.00" width="9.58" height="9" rx="2" fill="#5eb8e0"/><rect x="826.26" y="264.00" width="9.58" height="9" rx="2" fill="#5eb8e0"/><rect x="838.44" y="264.00" width="9.58" height="9" rx="2" fill="#5eb8e0"/><rect x="850.62" y="264.00" width="9.58" height="9" rx="2" fill="#5eb8e0"/><rect x="862.80" y="264.00" width="9.58" height="9" rx="2" fill="#5eb8e0"/><rect x="874.98" y="264.00" width="9.58" height="9" rx="2" fill="#5eb8e0"/><rect x="887.16" y="264.00" width="9.58" height="9" rx="2" fill="#5eb8e0"/><rect x="899.34" y="264.00" width="9.58" height="9" rx="2" fill="#232a3d"/><rect x="911.52" y="264.00" width="9.58" height="9" rx="2" fill="#232a3d"/><rect x="923.70" y="264.00" width="9.58" height="9" rx="2" fill="#232a3d"/><rect x="935.88" y="264.00" width="9.58" height="9" rx="2" fill="#232a3d"/><rect x="948.06" y="264.00" width="9.58" height="9" rx="2" fill="#232a3d"/><rect x="960.24" y="264.00" width="9.58" height="9" rx="2" fill="#232a3d"/><rect x="972.42" y="264.00" width="9.58" height="9" rx="2" fill="#232a3d"/>
<text x="996.00" y="271.50" font-family="SFMono-Regular, Consolas, 'Liberation Mono', Menlo, monospace" font-size="11" font-weight="700" fill="#9aa2b8">65%</text>
<text x="577.00" y="305.50" font-family="Segoe UI, Helvetica, Arial, sans-serif" font-size="12" fill="#c7cede">After Effects</text>
<rect x="741.00" y="298.00" width="9.58" height="9" rx="2" fill="#5eb8e0"/><rect x="753.18" y="298.00" width="9.58" height="9" rx="2" fill="#5eb8e0"/><rect x="765.36" y="298.00" width="9.58" height="9" rx="2" fill="#5eb8e0"/><rect x="777.54" y="298.00" width="9.58" height="9" rx="2" fill="#5eb8e0"/><rect x="789.72" y="298.00" width="9.58" height="9" rx="2" fill="#5eb8e0"/><rect x="801.90" y="298.00" width="9.58" height="9" rx="2" fill="#5eb8e0"/><rect x="814.08" y="298.00" width="9.58" height="9" rx="2" fill="#5eb8e0"/><rect x="826.26" y="298.00" width="9.58" height="9" rx="2" fill="#5eb8e0"/><rect x="838.44" y="298.00" width="9.58" height="9" rx="2" fill="#5eb8e0"/><rect x="850.62" y="298.00" width="9.58" height="9" rx="2" fill="#5eb8e0"/><rect x="862.80" y="298.00" width="9.58" height="9" rx="2" fill="#5eb8e0"/><rect x="874.98" y="298.00" width="9.58" height="9" rx="2" fill="#5eb8e0"/><rect x="887.16" y="298.00" width="9.58" height="9" rx="2" fill="#232a3d"/><rect x="899.34" y="298.00" width="9.58" height="9" rx="2" fill="#232a3d"/><rect x="911.52" y="298.00" width="9.58" height="9" rx="2" fill="#232a3d"/><rect x="923.70" y="298.00" width="9.58" height="9" rx="2" fill="#232a3d"/><rect x="935.88" y="298.00" width="9.58" height="9" rx="2" fill="#232a3d"/><rect x="948.06" y="298.00" width="9.58" height="9" rx="2" fill="#232a3d"/><rect x="960.24" y="298.00" width="9.58" height="9" rx="2" fill="#232a3d"/><rect x="972.42" y="298.00" width="9.58" height="9" rx="2" fill="#232a3d"/>
<text x="996.00" y="305.50" font-family="SFMono-Regular, Consolas, 'Liberation Mono', Menlo, monospace" font-size="11" font-weight="700" fill="#9aa2b8">60%</text>
</g>
<g>
<rect x="551.00" y="372.00" width="497.00" height="250.00" rx="16" fill="#10141f" stroke="#20263a" stroke-width="1.1"/>
<rect x="551.00" y="372.00" width="497.00" height="250.00" rx="16" fill="url(#cardTop)"/>
<rect x="551.00" y="372.00" width="4" height="250.00" rx="2" fill="#f5a623" opacity="0.85"/>
<g transform="translate(577.0,392) scale(0.7500)" fill="none" stroke="#f5a623" stroke-width="2.1" stroke-linecap="round" stroke-linejoin="round"><path d="M17 21v-2a4 4 0 0 0-4-4H5a4 4 0 0 0-4 4v2"/><circle cx="9" cy="7" r="4"/><path d="M23 21v-2a4 4 0 0 0-3-3.87"/><path d="M16 3.13a4 4 0 0 1 0 7.75"/></g>
<text x="605.00" y="405.50" font-family="Segoe UI, Helvetica, Arial, sans-serif" font-size="13" font-weight="700" letter-spacing="0.8" fill="#eef1f8">SOFT SKILLS</text>
<text x="1022.00" y="405.50" text-anchor="end" font-family="SFMono-Regular, Consolas, 'Liberation Mono', Menlo, monospace" font-size="10" font-weight="700" letter-spacing="0.5" fill="#f5a623" opacity="0.9">AVG 79%</text>
<text x="577.00" y="439.50" font-family="Segoe UI, Helvetica, Arial, sans-serif" font-size="12" fill="#c7cede">Customer Service</text>
<rect x="741.00" y="432.00" width="9.58" height="9" rx="2" fill="#8b5cf6"/><rect x="753.18" y="432.00" width="9.58" height="9" rx="2" fill="#8b5cf6"/><rect x="765.36" y="432.00" width="9.58" height="9" rx="2" fill="#8b5cf6"/><rect x="777.54" y="432.00" width="9.58" height="9" rx="2" fill="#8b5cf6"/><rect x="789.72" y="432.00" width="9.58" height="9" rx="2" fill="#8b5cf6"/><rect x="801.90" y="432.00" width="9.58" height="9" rx="2" fill="#8b5cf6"/><rect x="814.08" y="432.00" width="9.58" height="9" rx="2" fill="#8b5cf6"/><rect x="826.26" y="432.00" width="9.58" height="9" rx="2" fill="#8b5cf6"/><rect x="838.44" y="432.00" width="9.58" height="9" rx="2" fill="#8b5cf6"/><rect x="850.62" y="432.00" width="9.58" height="9" rx="2" fill="#8b5cf6"/><rect x="862.80" y="432.00" width="9.58" height="9" rx="2" fill="#8b5cf6"/><rect x="874.98" y="432.00" width="9.58" height="9" rx="2" fill="#8b5cf6"/><rect x="887.16" y="432.00" width="9.58" height="9" rx="2" fill="#8b5cf6"/><rect x="899.34" y="432.00" width="9.58" height="9" rx="2" fill="#8b5cf6"/><rect x="911.52" y="432.00" width="9.58" height="9" rx="2" fill="#8b5cf6"/><rect x="923.70" y="432.00" width="9.58" height="9" rx="2" fill="#8b5cf6"/><rect x="935.88" y="432.00" width="9.58" height="9" rx="2" fill="#8b5cf6"/><rect x="948.06" y="432.00" width="9.58" height="9" rx="2" fill="#232a3d"/><rect x="960.24" y="432.00" width="9.58" height="9" rx="2" fill="#232a3d"/><rect x="972.42" y="432.00" width="9.58" height="9" rx="2" fill="#232a3d"/>
<text x="996.00" y="439.50" font-family="SFMono-Regular, Consolas, 'Liberation Mono', Menlo, monospace" font-size="11" font-weight="700" fill="#9aa2b8">85%</text>
<text x="577.00" y="473.50" font-family="Segoe UI, Helvetica, Arial, sans-serif" font-size="12" fill="#c7cede">Team Collaboration</text>
<rect x="741.00" y="466.00" width="9.58" height="9" rx="2" fill="#8b5cf6"/><rect x="753.18" y="466.00" width="9.58" height="9" rx="2" fill="#8b5cf6"/><rect x="765.36" y="466.00" width="9.58" height="9" rx="2" fill="#8b5cf6"/><rect x="777.54" y="466.00" width="9.58" height="9" rx="2" fill="#8b5cf6"/><rect x="789.72" y="466.00" width="9.58" height="9" rx="2" fill="#8b5cf6"/><rect x="801.90" y="466.00" width="9.58" height="9" rx="2" fill="#8b5cf6"/><rect x="814.08" y="466.00" width="9.58" height="9" rx="2" fill="#8b5cf6"/><rect x="826.26" y="466.00" width="9.58" height="9" rx="2" fill="#8b5cf6"/><rect x="838.44" y="466.00" width="9.58" height="9" rx="2" fill="#8b5cf6"/><rect x="850.62" y="466.00" width="9.58" height="9" rx="2" fill="#8b5cf6"/><rect x="862.80" y="466.00" width="9.58" height="9" rx="2" fill="#8b5cf6"/><rect x="874.98" y="466.00" width="9.58" height="9" rx="2" fill="#8b5cf6"/><rect x="887.16" y="466.00" width="9.58" height="9" rx="2" fill="#8b5cf6"/><rect x="899.34" y="466.00" width="9.58" height="9" rx="2" fill="#8b5cf6"/><rect x="911.52" y="466.00" width="9.58" height="9" rx="2" fill="#8b5cf6"/><rect x="923.70" y="466.00" width="9.58" height="9" rx="2" fill="#8b5cf6"/><rect x="935.88" y="466.00" width="9.58" height="9" rx="2" fill="#232a3d"/><rect x="948.06" y="466.00" width="9.58" height="9" rx="2" fill="#232a3d"/><rect x="960.24" y="466.00" width="9.58" height="9" rx="2" fill="#232a3d"/><rect x="972.42" y="466.00" width="9.58" height="9" rx="2" fill="#232a3d"/>
<text x="996.00" y="473.50" font-family="SFMono-Regular, Consolas, 'Liberation Mono', Menlo, monospace" font-size="11" font-weight="700" fill="#9aa2b8">80%</text>
<text x="577.00" y="507.50" font-family="Segoe UI, Helvetica, Arial, sans-serif" font-size="12" fill="#c7cede">Leadership</text>
<rect x="741.00" y="500.00" width="9.58" height="9" rx="2" fill="#8b5cf6"/><rect x="753.18" y="500.00" width="9.58" height="9" rx="2" fill="#8b5cf6"/><rect x="765.36" y="500.00" width="9.58" height="9" rx="2" fill="#8b5cf6"/><rect x="777.54" y="500.00" width="9.58" height="9" rx="2" fill="#8b5cf6"/><rect x="789.72" y="500.00" width="9.58" height="9" rx="2" fill="#8b5cf6"/><rect x="801.90" y="500.00" width="9.58" height="9" rx="2" fill="#8b5cf6"/><rect x="814.08" y="500.00" width="9.58" height="9" rx="2" fill="#8b5cf6"/><rect x="826.26" y="500.00" width="9.58" height="9" rx="2" fill="#8b5cf6"/><rect x="838.44" y="500.00" width="9.58" height="9" rx="2" fill="#8b5cf6"/><rect x="850.62" y="500.00" width="9.58" height="9" rx="2" fill="#8b5cf6"/><rect x="862.80" y="500.00" width="9.58" height="9" rx="2" fill="#8b5cf6"/><rect x="874.98" y="500.00" width="9.58" height="9" rx="2" fill="#8b5cf6"/><rect x="887.16" y="500.00" width="9.58" height="9" rx="2" fill="#8b5cf6"/><rect x="899.34" y="500.00" width="9.58" height="9" rx="2" fill="#8b5cf6"/><rect x="911.52" y="500.00" width="9.58" height="9" rx="2" fill="#8b5cf6"/><rect x="923.70" y="500.00" width="9.58" height="9" rx="2" fill="#232a3d"/><rect x="935.88" y="500.00" width="9.58" height="9" rx="2" fill="#232a3d"/><rect x="948.06" y="500.00" width="9.58" height="9" rx="2" fill="#232a3d"/><rect x="960.24" y="500.00" width="9.58" height="9" rx="2" fill="#232a3d"/><rect x="972.42" y="500.00" width="9.58" height="9" rx="2" fill="#232a3d"/>
<text x="996.00" y="507.50" font-family="SFMono-Regular, Consolas, 'Liberation Mono', Menlo, monospace" font-size="11" font-weight="700" fill="#9aa2b8">75%</text>
<text x="577.00" y="541.50" font-family="Segoe UI, Helvetica, Arial, sans-serif" font-size="12" fill="#c7cede">Brand Marketing</text>
<rect x="741.00" y="534.00" width="9.58" height="9" rx="2" fill="#8b5cf6"/><rect x="753.18" y="534.00" width="9.58" height="9" rx="2" fill="#8b5cf6"/><rect x="765.36" y="534.00" width="9.58" height="9" rx="2" fill="#8b5cf6"/><rect x="777.54" y="534.00" width="9.58" height="9" rx="2" fill="#8b5cf6"/><rect x="789.72" y="534.00" width="9.58" height="9" rx="2" fill="#8b5cf6"/><rect x="801.90" y="534.00" width="9.58" height="9" rx="2" fill="#8b5cf6"/><rect x="814.08" y="534.00" width="9.58" height="9" rx="2" fill="#8b5cf6"/><rect x="826.26" y="534.00" width="9.58" height="9" rx="2" fill="#8b5cf6"/><rect x="838.44" y="534.00" width="9.58" height="9" rx="2" fill="#8b5cf6"/><rect x="850.62" y="534.00" width="9.58" height="9" rx="2" fill="#8b5cf6"/><rect x="862.80" y="534.00" width="9.58" height="9" rx="2" fill="#8b5cf6"/><rect x="874.98" y="534.00" width="9.58" height="9" rx="2" fill="#8b5cf6"/><rect x="887.16" y="534.00" width="9.58" height="9" rx="2" fill="#8b5cf6"/><rect x="899.34" y="534.00" width="9.58" height="9" rx="2" fill="#8b5cf6"/><rect x="911.52" y="534.00" width="9.58" height="9" rx="2" fill="#8b5cf6"/><rect x="923.70" y="534.00" width="9.58" height="9" rx="2" fill="#232a3d"/><rect x="935.88" y="534.00" width="9.58" height="9" rx="2" fill="#232a3d"/><rect x="948.06" y="534.00" width="9.58" height="9" rx="2" fill="#232a3d"/><rect x="960.24" y="534.00" width="9.58" height="9" rx="2" fill="#232a3d"/><rect x="972.42" y="534.00" width="9.58" height="9" rx="2" fill="#232a3d"/>
<text x="996.00" y="541.50" font-family="SFMono-Regular, Consolas, 'Liberation Mono', Menlo, monospace" font-size="11" font-weight="700" fill="#9aa2b8">75%</text>
</g>
</svg>