<svg xmlns="http://www.w3.org/2000/svg" viewBox="0 0 828 582" width="828" height="582">

  <defs>
    <linearGradient id="bg" x1="0" y1="0" x2="1" y2="1">
      <stop offset="0%" stop-color="#0d1117"/>
      <stop offset="100%" stop-color="#131826"/>
    </linearGradient>
  </defs>
  <rect x="0" y="0" width="828" height="582" rx="14" fill="url(#bg)" stroke="#21262d" stroke-width="1.5"/>

<circle cx="34" cy="26" r="4" fill="#8b5cf6"/>
<text x="44" y="30" font-family="Segoe UI, Helvetica, Arial, sans-serif" font-size="10.5" fill="#8b949e">Advanced (75%+)</text>
<circle cx="184" cy="26" r="4" fill="#a78bfa"/>
<text x="194" y="30" font-family="Segoe UI, Helvetica, Arial, sans-serif" font-size="10.5" fill="#8b949e">Intermediate (50-74%)</text>
<circle cx="374" cy="26" r="4" fill="#6b7280"/>
<text x="384" y="30" font-family="Segoe UI, Helvetica, Arial, sans-serif" font-size="10.5" fill="#8b949e">Basic (&lt;50%)</text>
<text x="34" y="98" font-family="Segoe UI, Helvetica, Arial, sans-serif" font-size="14" font-weight="700" letter-spacing="0.5" fill="#a855f7">TECHNICAL SKILLS</text>
<text x="34" y="124.0" font-family="Segoe UI, Helvetica, Arial, sans-serif" font-size="12.5" fill="#c9d1d9">SQL</text>
<rect x="164" y="112" width="210" height="8" rx="4" fill="#21262d"/>
<rect x="164" y="112" width="178" height="8" rx="4" fill="#8b5cf6"/>
<text x="386" y="124.0" font-family="Segoe UI, Helvetica, Arial, sans-serif" font-size="11.5" font-weight="600" fill="#8b949e">85%</text>
<text x="34" y="158.0" font-family="Segoe UI, Helvetica, Arial, sans-serif" font-size="12.5" fill="#c9d1d9">Oracle DB</text>
<rect x="164" y="146" width="210" height="8" rx="4" fill="#21262d"/>
<rect x="164" y="146" width="178" height="8" rx="4" fill="#8b5cf6"/>
<text x="386" y="158.0" font-family="Segoe UI, Helvetica, Arial, sans-serif" font-size="11.5" font-weight="600" fill="#8b949e">85%</text>
<text x="34" y="192.0" font-family="Segoe UI, Helvetica, Arial, sans-serif" font-size="12.5" fill="#c9d1d9">HTML / CSS</text>
<rect x="164" y="180" width="210" height="8" rx="4" fill="#21262d"/>
<rect x="164" y="180" width="168" height="8" rx="4" fill="#8b5cf6"/>
<text x="386" y="192.0" font-family="Segoe UI, Helvetica, Arial, sans-serif" font-size="11.5" font-weight="600" fill="#8b949e">80%</text>
<text x="34" y="226.0" font-family="Segoe UI, Helvetica, Arial, sans-serif" font-size="12.5" fill="#c9d1d9">Figma</text>
<rect x="164" y="214" width="210" height="8" rx="4" fill="#21262d"/>
<rect x="164" y="214" width="168" height="8" rx="4" fill="#8b5cf6"/>
<text x="386" y="226.0" font-family="Segoe UI, Helvetica, Arial, sans-serif" font-size="11.5" font-weight="600" fill="#8b949e">80%</text>
<text x="34" y="260.0" font-family="Segoe UI, Helvetica, Arial, sans-serif" font-size="12.5" fill="#c9d1d9">Odoo ERP</text>
<rect x="164" y="248" width="210" height="8" rx="4" fill="#21262d"/>
<rect x="164" y="248" width="168" height="8" rx="4" fill="#8b5cf6"/>
<text x="386" y="260.0" font-family="Segoe UI, Helvetica, Arial, sans-serif" font-size="11.5" font-weight="600" fill="#8b949e">80%</text>
<text x="34" y="294.0" font-family="Segoe UI, Helvetica, Arial, sans-serif" font-size="12.5" fill="#c9d1d9">GitHub</text>
<rect x="164" y="282" width="210" height="8" rx="4" fill="#21262d"/>
<rect x="164" y="282" width="158" height="8" rx="4" fill="#8b5cf6"/>
<text x="386" y="294.0" font-family="Segoe UI, Helvetica, Arial, sans-serif" font-size="11.5" font-weight="600" fill="#8b949e">75%</text>
<text x="34" y="328.0" font-family="Segoe UI, Helvetica, Arial, sans-serif" font-size="12.5" fill="#c9d1d9">Power BI</text>
<rect x="164" y="316" width="210" height="8" rx="4" fill="#21262d"/>
<rect x="164" y="316" width="147" height="8" rx="4" fill="#a78bfa"/>
<text x="386" y="328.0" font-family="Segoe UI, Helvetica, Arial, sans-serif" font-size="11.5" font-weight="600" fill="#8b949e">70%</text>
<text x="34" y="362.0" font-family="Segoe UI, Helvetica, Arial, sans-serif" font-size="12.5" fill="#c9d1d9">SAP ERP</text>
<rect x="164" y="350" width="210" height="8" rx="4" fill="#21262d"/>
<rect x="164" y="350" width="136" height="8" rx="4" fill="#a78bfa"/>
<text x="386" y="362.0" font-family="Segoe UI, Helvetica, Arial, sans-serif" font-size="11.5" font-weight="600" fill="#8b949e">65%</text>
<text x="34" y="396.0" font-family="Segoe UI, Helvetica, Arial, sans-serif" font-size="12.5" fill="#c9d1d9">WordPress</text>
<rect x="164" y="384" width="210" height="8" rx="4" fill="#21262d"/>
<rect x="164" y="384" width="136" height="8" rx="4" fill="#a78bfa"/>
<text x="386" y="396.0" font-family="Segoe UI, Helvetica, Arial, sans-serif" font-size="11.5" font-weight="600" fill="#8b949e">65%</text>
<text x="34" y="430.0" font-family="Segoe UI, Helvetica, Arial, sans-serif" font-size="12.5" fill="#c9d1d9">Python</text>
<rect x="164" y="418" width="210" height="8" rx="4" fill="#21262d"/>
<rect x="164" y="418" width="126" height="8" rx="4" fill="#a78bfa"/>
<text x="386" y="430.0" font-family="Segoe UI, Helvetica, Arial, sans-serif" font-size="11.5" font-weight="600" fill="#8b949e">60%</text>
<text x="34" y="464.0" font-family="Segoe UI, Helvetica, Arial, sans-serif" font-size="12.5" fill="#c9d1d9">JIRA (SCRUM)</text>
<rect x="164" y="452" width="210" height="8" rx="4" fill="#21262d"/>
<rect x="164" y="452" width="126" height="8" rx="4" fill="#a78bfa"/>
<text x="386" y="464.0" font-family="Segoe UI, Helvetica, Arial, sans-serif" font-size="11.5" font-weight="600" fill="#8b949e">60%</text>
<text x="34" y="498.0" font-family="Segoe UI, Helvetica, Arial, sans-serif" font-size="12.5" fill="#c9d1d9">JavaScript</text>
<rect x="164" y="486" width="210" height="8" rx="4" fill="#21262d"/>
<rect x="164" y="486" width="74" height="8" rx="4" fill="#6b7280"/>
<text x="386" y="498.0" font-family="Segoe UI, Helvetica, Arial, sans-serif" font-size="11.5" font-weight="600" fill="#8b949e">35%</text>
<text x="34" y="532.0" font-family="Segoe UI, Helvetica, Arial, sans-serif" font-size="12.5" fill="#c9d1d9">C++</text>
<rect x="164" y="520" width="210" height="8" rx="4" fill="#21262d"/>
<rect x="164" y="520" width="63" height="8" rx="4" fill="#6b7280"/>
<text x="386" y="532.0" font-family="Segoe UI, Helvetica, Arial, sans-serif" font-size="11.5" font-weight="600" fill="#8b949e">30%</text>
<text x="434" y="98" font-family="Segoe UI, Helvetica, Arial, sans-serif" font-size="14" font-weight="700" letter-spacing="0.5" fill="#a855f7">CREATIVE &amp; DESIGN</text>
<text x="434" y="124.0" font-family="Segoe UI, Helvetica, Arial, sans-serif" font-size="12.5" fill="#c9d1d9">Photoshop</text>
<rect x="564" y="112" width="210" height="8" rx="4" fill="#21262d"/>
<rect x="564" y="112" width="168" height="8" rx="4" fill="#8b5cf6"/>
<text x="786" y="124.0" font-family="Segoe UI, Helvetica, Arial, sans-serif" font-size="11.5" font-weight="600" fill="#8b949e">80%</text>
<text x="434" y="158.0" font-family="Segoe UI, Helvetica, Arial, sans-serif" font-size="12.5" fill="#c9d1d9">Canva</text>
<rect x="564" y="146" width="210" height="8" rx="4" fill="#21262d"/>
<rect x="564" y="146" width="168" height="8" rx="4" fill="#8b5cf6"/>
<text x="786" y="158.0" font-family="Segoe UI, Helvetica, Arial, sans-serif" font-size="11.5" font-weight="600" fill="#8b949e">80%</text>
<text x="434" y="192.0" font-family="Segoe UI, Helvetica, Arial, sans-serif" font-size="12.5" fill="#c9d1d9">Illustrator</text>
<rect x="564" y="180" width="210" height="8" rx="4" fill="#21262d"/>
<rect x="564" y="180" width="158" height="8" rx="4" fill="#8b5cf6"/>
<text x="786" y="192.0" font-family="Segoe UI, Helvetica, Arial, sans-serif" font-size="11.5" font-weight="600" fill="#8b949e">75%</text>
<text x="434" y="226.0" font-family="Segoe UI, Helvetica, Arial, sans-serif" font-size="12.5" fill="#c9d1d9">Premiere Pro</text>
<rect x="564" y="214" width="210" height="8" rx="4" fill="#21262d"/>
<rect x="564" y="214" width="136" height="8" rx="4" fill="#a78bfa"/>
<text x="786" y="226.0" font-family="Segoe UI, Helvetica, Arial, sans-serif" font-size="11.5" font-weight="600" fill="#8b949e">65%</text>
<text x="434" y="260.0" font-family="Segoe UI, Helvetica, Arial, sans-serif" font-size="12.5" fill="#c9d1d9">After Effects</text>
<rect x="564" y="248" width="210" height="8" rx="4" fill="#21262d"/>
<rect x="564" y="248" width="126" height="8" rx="4" fill="#a78bfa"/>
<text x="786" y="260.0" font-family="Segoe UI, Helvetica, Arial, sans-serif" font-size="11.5" font-weight="600" fill="#8b949e">60%</text>
<text x="434" y="312" font-family="Segoe UI, Helvetica, Arial, sans-serif" font-size="14" font-weight="700" letter-spacing="0.5" fill="#a855f7">SOFT SKILLS</text>
<text x="434" y="338.0" font-family="Segoe UI, Helvetica, Arial, sans-serif" font-size="12.5" fill="#c9d1d9">Customer Service</text>
<rect x="564" y="326" width="210" height="8" rx="4" fill="#21262d"/>
<rect x="564" y="326" width="178" height="8" rx="4" fill="#8b5cf6"/>
<text x="786" y="338.0" font-family="Segoe UI, Helvetica, Arial, sans-serif" font-size="11.5" font-weight="600" fill="#8b949e">85%</text>
<text x="434" y="372.0" font-family="Segoe UI, Helvetica, Arial, sans-serif" font-size="12.5" fill="#c9d1d9">Team Collaboration</text>
<rect x="564" y="360" width="210" height="8" rx="4" fill="#21262d"/>
<rect x="564" y="360" width="168" height="8" rx="4" fill="#8b5cf6"/>
<text x="786" y="372.0" font-family="Segoe UI, Helvetica, Arial, sans-serif" font-size="11.5" font-weight="600" fill="#8b949e">80%</text>
<text x="434" y="406.0" font-family="Segoe UI, Helvetica, Arial, sans-serif" font-size="12.5" fill="#c9d1d9">Leadership</text>
<rect x="564" y="394" width="210" height="8" rx="4" fill="#21262d"/>
<rect x="564" y="394" width="158" height="8" rx="4" fill="#8b5cf6"/>
<text x="786" y="406.0" font-family="Segoe UI, Helvetica, Arial, sans-serif" font-size="11.5" font-weight="600" fill="#8b949e">75%</text>
<text x="434" y="440.0" font-family="Segoe UI, Helvetica, Arial, sans-serif" font-size="12.5" fill="#c9d1d9">Brand Marketing</text>
<rect x="564" y="428" width="210" height="8" rx="4" fill="#21262d"/>
<rect x="564" y="428" width="158" height="8" rx="4" fill="#8b5cf6"/>
<text x="786" y="440.0" font-family="Segoe UI, Helvetica, Arial, sans-serif" font-size="11.5" font-weight="600" fill="#8b949e">75%</text>
<line x1="414.0" y1="56" x2="414.0" y2="566" stroke="#21262d" stroke-width="1"/>
</svg>