<svg xmlns="http://www.w3.org/2000/svg" viewBox="0 0 828 628" width="828" height="628">

  <defs>
    <linearGradient id="bg" x1="0" y1="0" x2="1" y2="1">
      <stop offset="0%" stop-color="#0d1117"/>
      <stop offset="100%" stop-color="#131826"/>
    </linearGradient>
  </defs>
  <rect x="0" y="0" width="828" height="628" rx="14" fill="url(#bg)" stroke="#21262d" stroke-width="1.5"/>

<text x="34" y="38" font-family="Segoe UI, Helvetica, Arial, sans-serif" font-size="20" font-weight="700" fill="#e6e6ef">Skill Proficiency</text>
<text x="34" y="56" font-family="Segoe UI, Helvetica, Arial, sans-serif" font-size="12" fill="#6b7280">Self-assessed proficiency across core tools and competencies</text>
<circle cx="34" cy="76" r="4" fill="#8b5cf6"/>
<text x="44" y="80" font-family="Segoe UI, Helvetica, Arial, sans-serif" font-size="10.5" fill="#8b949e">Advanced (75%+)</text>
<circle cx="184" cy="76" r="4" fill="#a78bfa"/>
<text x="194" y="80" font-family="Segoe UI, Helvetica, Arial, sans-serif" font-size="10.5" fill="#8b949e">Intermediate (50-74%)</text>
<circle cx="374" cy="76" r="4" fill="#6b7280"/>
<text x="384" y="80" font-family="Segoe UI, Helvetica, Arial, sans-serif" font-size="10.5" fill="#8b949e">Basic (&lt;50%)</text>
<text x="34" y="144" font-family="Segoe UI, Helvetica, Arial, sans-serif" font-size="14" font-weight="700" letter-spacing="0.5" fill="#a855f7">TECHNICAL SKILLS</text>
<text x="34" y="170.0" font-family="Segoe UI, Helvetica, Arial, sans-serif" font-size="12.5" fill="#c9d1d9">SQL</text>
<rect x="164" y="158" width="210" height="8" rx="4" fill="#21262d"/>
<rect x="164" y="158" width="178" height="8" rx="4" fill="#8b5cf6"/>
<text x="386" y="170.0" font-family="Segoe UI, Helvetica, Arial, sans-serif" font-size="11.5" font-weight="600" fill="#8b949e">85%</text>
<text x="34" y="204.0" font-family="Segoe UI, Helvetica, Arial, sans-serif" font-size="12.5" fill="#c9d1d9">Oracle DB</text>
<rect x="164" y="192" width="210" height="8" rx="4" fill="#21262d"/>
<rect x="164" y="192" width="178" height="8" rx="4" fill="#8b5cf6"/>
<text x="386" y="204.0" font-family="Segoe UI, Helvetica, Arial, sans-serif" font-size="11.5" font-weight="600" fill="#8b949e">85%</text>
<text x="34" y="238.0" font-family="Segoe UI, Helvetica, Arial, sans-serif" font-size="12.5" fill="#c9d1d9">HTML / CSS</text>
<rect x="164" y="226" width="210" height="8" rx="4" fill="#21262d"/>
<rect x="164" y="226" width="168" height="8" rx="4" fill="#8b5cf6"/>
<text x="386" y="238.0" font-family="Segoe UI, Helvetica, Arial, sans-serif" font-size="11.5" font-weight="600" fill="#8b949e">80%</text>
<text x="34" y="272.0" font-family="Segoe UI, Helvetica, Arial, sans-serif" font-size="12.5" fill="#c9d1d9">Figma</text>
<rect x="164" y="260" width="210" height="8" rx="4" fill="#21262d"/>
<rect x="164" y="260" width="168" height="8" rx="4" fill="#8b5cf6"/>
<text x="386" y="272.0" font-family="Segoe UI, Helvetica, Arial, sans-serif" font-size="11.5" font-weight="600" fill="#8b949e">80%</text>
<text x="34" y="306.0" font-family="Segoe UI, Helvetica, Arial, sans-serif" font-size="12.5" fill="#c9d1d9">Odoo ERP</text>
<rect x="164" y="294" width="210" height="8" rx="4" fill="#21262d"/>
<rect x="164" y="294" width="168" height="8" rx="4" fill="#8b5cf6"/>
<text x="386" y="306.0" font-family="Segoe UI, Helvetica, Arial, sans-serif" font-size="11.5" font-weight="600" fill="#8b949e">80%</text>
<text x="34" y="340.0" font-family="Segoe UI, Helvetica, Arial, sans-serif" font-size="12.5" fill="#c9d1d9">GitHub</text>
<rect x="164" y="328" width="210" height="8" rx="4" fill="#21262d"/>
<rect x="164" y="328" width="158" height="8" rx="4" fill="#8b5cf6"/>
<text x="386" y="340.0" font-family="Segoe UI, Helvetica, Arial, sans-serif" font-size="11.5" font-weight="600" fill="#8b949e">75%</text>
<text x="34" y="374.0" font-family="Segoe UI, Helvetica, Arial, sans-serif" font-size="12.5" fill="#c9d1d9">Power BI</text>
<rect x="164" y="362" width="210" height="8" rx="4" fill="#21262d"/>
<rect x="164" y="362" width="147" height="8" rx="4" fill="#a78bfa"/>
<text x="386" y="374.0" font-family="Segoe UI, Helvetica, Arial, sans-serif" font-size="11.5" font-weight="600" fill="#8b949e">70%</text>
<text x="34" y="408.0" font-family="Segoe UI, Helvetica, Arial, sans-serif" font-size="12.5" fill="#c9d1d9">SAP ERP</text>
<rect x="164" y="396" width="210" height="8" rx="4" fill="#21262d"/>
<rect x="164" y="396" width="136" height="8" rx="4" fill="#a78bfa"/>
<text x="386" y="408.0" font-family="Segoe UI, Helvetica, Arial, sans-serif" font-size="11.5" font-weight="600" fill="#8b949e">65%</text>
<text x="34" y="442.0" font-family="Segoe UI, Helvetica, Arial, sans-serif" font-size="12.5" fill="#c9d1d9">WordPress</text>
<rect x="164" y="430" width="210" height="8" rx="4" fill="#21262d"/>
<rect x="164" y="430" width="136" height="8" rx="4" fill="#a78bfa"/>
<text x="386" y="442.0" font-family="Segoe UI, Helvetica, Arial, sans-serif" font-size="11.5" font-weight="600" fill="#8b949e">65%</text>
<text x="34" y="476.0" font-family="Segoe UI, Helvetica, Arial, sans-serif" font-size="12.5" fill="#c9d1d9">Python</text>
<rect x="164" y="464" width="210" height="8" rx="4" fill="#21262d"/>
<rect x="164" y="464" width="126" height="8" rx="4" fill="#a78bfa"/>
<text x="386" y="476.0" font-family="Segoe UI, Helvetica, Arial, sans-serif" font-size="11.5" font-weight="600" fill="#8b949e">60%</text>
<text x="34" y="510.0" font-family="Segoe UI, Helvetica, Arial, sans-serif" font-size="12.5" fill="#c9d1d9">JIRA (SCRUM)</text>
<rect x="164" y="498" width="210" height="8" rx="4" fill="#21262d"/>
<rect x="164" y="498" width="126" height="8" rx="4" fill="#a78bfa"/>
<text x="386" y="510.0" font-family="Segoe UI, Helvetica, Arial, sans-serif" font-size="11.5" font-weight="600" fill="#8b949e">60%</text>
<text x="34" y="544.0" font-family="Segoe UI, Helvetica, Arial, sans-serif" font-size="12.5" fill="#c9d1d9">JavaScript</text>
<rect x="164" y="532" width="210" height="8" rx="4" fill="#21262d"/>
<rect x="164" y="532" width="74" height="8" rx="4" fill="#6b7280"/>
<text x="386" y="544.0" font-family="Segoe UI, Helvetica, Arial, sans-serif" font-size="11.5" font-weight="600" fill="#8b949e">35%</text>
<text x="34" y="578.0" font-family="Segoe UI, Helvetica, Arial, sans-serif" font-size="12.5" fill="#c9d1d9">C++</text>
<rect x="164" y="566" width="210" height="8" rx="4" fill="#21262d"/>
<rect x="164" y="566" width="63" height="8" rx="4" fill="#6b7280"/>
<text x="386" y="578.0" font-family="Segoe UI, Helvetica, Arial, sans-serif" font-size="11.5" font-weight="600" fill="#8b949e">30%</text>
<text x="434" y="144" font-family="Segoe UI, Helvetica, Arial, sans-serif" font-size="14" font-weight="700" letter-spacing="0.5" fill="#a855f7">CREATIVE &amp; DESIGN</text>
<text x="434" y="170.0" font-family="Segoe UI, Helvetica, Arial, sans-serif" font-size="12.5" fill="#c9d1d9">Photoshop</text>
<rect x="564" y="158" width="210" height="8" rx="4" fill="#21262d"/>
<rect x="564" y="158" width="168" height="8" rx="4" fill="#8b5cf6"/>
<text x="786" y="170.0" font-family="Segoe UI, Helvetica, Arial, sans-serif" font-size="11.5" font-weight="600" fill="#8b949e">80%</text>
<text x="434" y="204.0" font-family="Segoe UI, Helvetica, Arial, sans-serif" font-size="12.5" fill="#c9d1d9">Canva</text>
<rect x="564" y="192" width="210" height="8" rx="4" fill="#21262d"/>
<rect x="564" y="192" width="168" height="8" rx="4" fill="#8b5cf6"/>
<text x="786" y="204.0" font-family="Segoe UI, Helvetica, Arial, sans-serif" font-size="11.5" font-weight="600" fill="#8b949e">80%</text>
<text x="434" y="238.0" font-family="Segoe UI, Helvetica, Arial, sans-serif" font-size="12.5" fill="#c9d1d9">Illustrator</text>
<rect x="564" y="226" width="210" height="8" rx="4" fill="#21262d"/>
<rect x="564" y="226" width="158" height="8" rx="4" fill="#8b5cf6"/>
<text x="786" y="238.0" font-family="Segoe UI, Helvetica, Arial, sans-serif" font-size="11.5" font-weight="600" fill="#8b949e">75%</text>
<text x="434" y="272.0" font-family="Segoe UI, Helvetica, Arial, sans-serif" font-size="12.5" fill="#c9d1d9">Premiere Pro</text>
<rect x="564" y="260" width="210" height="8" rx="4" fill="#21262d"/>
<rect x="564" y="260" width="136" height="8" rx="4" fill="#a78bfa"/>
<text x="786" y="272.0" font-family="Segoe UI, Helvetica, Arial, sans-serif" font-size="11.5" font-weight="600" fill="#8b949e">65%</text>
<text x="434" y="306.0" font-family="Segoe UI, Helvetica, Arial, sans-serif" font-size="12.5" fill="#c9d1d9">After Effects</text>
<rect x="564" y="294" width="210" height="8" rx="4" fill="#21262d"/>
<rect x="564" y="294" width="126" height="8" rx="4" fill="#a78bfa"/>
<text x="786" y="306.0" font-family="Segoe UI, Helvetica, Arial, sans-serif" font-size="11.5" font-weight="600" fill="#8b949e">60%</text>
<text x="434" y="358" font-family="Segoe UI, Helvetica, Arial, sans-serif" font-size="14" font-weight="700" letter-spacing="0.5" fill="#a855f7">SOFT SKILLS</text>
<text x="434" y="384.0" font-family="Segoe UI, Helvetica, Arial, sans-serif" font-size="12.5" fill="#c9d1d9">Customer Service</text>
<rect x="564" y="372" width="210" height="8" rx="4" fill="#21262d"/>
<rect x="564" y="372" width="178" height="8" rx="4" fill="#8b5cf6"/>
<text x="786" y="384.0" font-family="Segoe UI, Helvetica, Arial, sans-serif" font-size="11.5" font-weight="600" fill="#8b949e">85%</text>
<text x="434" y="418.0" font-family="Segoe UI, Helvetica, Arial, sans-serif" font-size="12.5" fill="#c9d1d9">Team Collaboration</text>
<rect x="564" y="406" width="210" height="8" rx="4" fill="#21262d"/>
<rect x="564" y="406" width="168" height="8" rx="4" fill="#8b5cf6"/>
<text x="786" y="418.0" font-family="Segoe UI, Helvetica, Arial, sans-serif" font-size="11.5" font-weight="600" fill="#8b949e">80%</text>
<text x="434" y="452.0" font-family="Segoe UI, Helvetica, Arial, sans-serif" font-size="12.5" fill="#c9d1d9">Leadership</text>
<rect x="564" y="440" width="210" height="8" rx="4" fill="#21262d"/>
<rect x="564" y="440" width="158" height="8" rx="4" fill="#8b5cf6"/>
<text x="786" y="452.0" font-family="Segoe UI, Helvetica, Arial, sans-serif" font-size="11.5" font-weight="600" fill="#8b949e">75%</text>
<text x="434" y="486.0" font-family="Segoe UI, Helvetica, Arial, sans-serif" font-size="12.5" fill="#c9d1d9">Brand Marketing</text>
<rect x="564" y="474" width="210" height="8" rx="4" fill="#21262d"/>
<rect x="564" y="474" width="158" height="8" rx="4" fill="#8b5cf6"/>
<text x="786" y="486.0" font-family="Segoe UI, Helvetica, Arial, sans-serif" font-size="11.5" font-weight="600" fill="#8b949e">75%</text>
<line x1="414.0" y1="102" x2="414.0" y2="612" stroke="#21262d" stroke-width="1"/>
</svg>