<svg xmlns="http://www.w3.org/2000/svg" viewBox="0 0 852 242" width="852" height="242">

  <defs>
    <linearGradient id="bg2" x1="0" y1="0" x2="1" y2="1">
      <stop offset="0%" stop-color="#0d1117"/>
      <stop offset="100%" stop-color="#131826"/>
    </linearGradient>
  </defs>
  <rect x="0" y="0" width="852" height="242" rx="14" fill="url(#bg2)" stroke="#21262d" stroke-width="1.5"/>

<circle cx="50" cy="38" r="4" fill="#a855f7"/>
<text x="62" y="42" font-family="Segoe UI, Helvetica, Arial, sans-serif" font-size="14" font-weight="700" letter-spacing="0.5" fill="#a855f7">LANGUAGES &amp; WEB</text>
<rect x="46" y="56" width="66.6923076923077" height="26" rx="13" fill="#1b2130" stroke="#31263f" stroke-width="1"/>
<circle cx="60" cy="69.0" r="3" fill="#8b5cf6"/>
<text x="70" y="73.5" font-family="Segoe UI, Helvetica, Arial, sans-serif" font-size="12.5" fill="#c9d1d9">HTML5</text>
<rect x="120.6923076923077" y="56" width="57.55769230769231" height="26" rx="13" fill="#1b2130" stroke="#31263f" stroke-width="1"/>
<circle cx="134.69230769230768" cy="69.0" r="3" fill="#8b5cf6"/>
<text x="144.69230769230768" y="73.5" font-family="Segoe UI, Helvetica, Arial, sans-serif" font-size="12.5" fill="#c9d1d9">CSS3</text>
<rect x="186.25" y="56" width="88.42307692307692" height="26" rx="13" fill="#1b2130" stroke="#31263f" stroke-width="1"/>
<circle cx="200.25" cy="69.0" r="3" fill="#8b5cf6"/>
<text x="210.25" y="73.5" font-family="Segoe UI, Helvetica, Arial, sans-serif" font-size="12.5" fill="#c9d1d9">JavaScript</text>
<rect x="282.6730769230769" y="56" width="63.90384615384615" height="26" rx="13" fill="#1b2130" stroke="#31263f" stroke-width="1"/>
<circle cx="296.6730769230769" cy="69.0" r="3" fill="#8b5cf6"/>
<text x="306.6730769230769" y="73.5" font-family="Segoe UI, Helvetica, Arial, sans-serif" font-size="12.5" fill="#c9d1d9">Python</text>
<rect x="354.5769230769231" y="56" width="45.44230769230769" height="26" rx="13" fill="#1b2130" stroke="#31263f" stroke-width="1"/>
<circle cx="368.5769230769231" cy="69.0" r="3" fill="#8b5cf6"/>
<text x="378.5769230769231" y="73.5" font-family="Segoe UI, Helvetica, Arial, sans-serif" font-size="12.5" fill="#c9d1d9">C++</text>
<circle cx="50" cy="146" r="4" fill="#a855f7"/>
<text x="62" y="150" font-family="Segoe UI, Helvetica, Arial, sans-serif" font-size="14" font-weight="700" letter-spacing="0.5" fill="#a855f7">DATA, BI &amp; DATABASES</text>
<rect x="46" y="164" width="51.40384615384615" height="26" rx="13" fill="#1b2130" stroke="#31263f" stroke-width="1"/>
<circle cx="60" cy="177.0" r="3" fill="#8b5cf6"/>
<text x="70" y="181.5" font-family="Segoe UI, Helvetica, Arial, sans-serif" font-size="12.5" fill="#c9d1d9">SQL</text>
<rect x="105.40384615384616" y="164" width="82.17307692307693" height="26" rx="13" fill="#1b2130" stroke="#31263f" stroke-width="1"/>
<circle cx="119.40384615384616" cy="177.0" r="3" fill="#8b5cf6"/>
<text x="129.40384615384616" y="181.5" font-family="Segoe UI, Helvetica, Arial, sans-serif" font-size="12.5" fill="#c9d1d9">Power BI</text>
<rect x="195.5769230769231" y="164" width="85.25" height="26" rx="13" fill="#1b2130" stroke="#31263f" stroke-width="1"/>
<circle cx="209.5769230769231" cy="177.0" r="3" fill="#8b5cf6"/>
<text x="219.5769230769231" y="181.5" font-family="Segoe UI, Helvetica, Arial, sans-serif" font-size="12.5" fill="#c9d1d9">Oracle DB</text>
<rect x="288.8269230769231" y="164" width="94.09615384615385" height="26" rx="13" fill="#1b2130" stroke="#31263f" stroke-width="1"/>
<circle cx="302.8269230769231" cy="177.0" r="3" fill="#8b5cf6"/>
<text x="312.8269230769231" y="181.5" font-family="Segoe UI, Helvetica, Arial, sans-serif" font-size="12.5" fill="#c9d1d9">IBM SPSS</text>
<circle cx="450" cy="38" r="4" fill="#a855f7"/>
<text x="462" y="42" font-family="Segoe UI, Helvetica, Arial, sans-serif" font-size="14" font-weight="700" letter-spacing="0.5" fill="#a855f7">ERP &amp; BUSINESS TOOLS</text>
<rect x="446" y="56" width="85.15384615384616" height="26" rx="13" fill="#1b2130" stroke="#31263f" stroke-width="1"/>
<circle cx="460" cy="69.0" r="3" fill="#8b5cf6"/>
<text x="470" y="73.5" font-family="Segoe UI, Helvetica, Arial, sans-serif" font-size="12.5" fill="#c9d1d9">Odoo ERP</text>
<rect x="539.1538461538462" y="56" width="84.96153846153845" height="26" rx="13" fill="#1b2130" stroke="#31263f" stroke-width="1"/>
<circle cx="553.1538461538462" cy="69.0" r="3" fill="#8b5cf6"/>
<text x="563.1538461538462" y="73.5" font-family="Segoe UI, Helvetica, Arial, sans-serif" font-size="12.5" fill="#c9d1d9">SAP ERP</text>
<rect x="632.1153846153846" y="56" width="112.65384615384616" height="26" rx="13" fill="#1b2130" stroke="#31263f" stroke-width="1"/>
<circle cx="646.1153846153846" cy="69.0" r="3" fill="#8b5cf6"/>
<text x="656.1153846153846" y="73.5" font-family="Segoe UI, Helvetica, Arial, sans-serif" font-size="12.5" fill="#c9d1d9">Jira (SCRUM)</text>
<circle cx="450" cy="146" r="4" fill="#a855f7"/>
<text x="462" y="150" font-family="Segoe UI, Helvetica, Arial, sans-serif" font-size="14" font-weight="700" letter-spacing="0.5" fill="#a855f7">DESIGN &amp; PRODUCTIVITY</text>
<rect x="446" y="164" width="54.67307692307693" height="26" rx="13" fill="#1b2130" stroke="#31263f" stroke-width="1"/>
<circle cx="460" cy="177.0" r="3" fill="#8b5cf6"/>
<text x="470" y="181.5" font-family="Segoe UI, Helvetica, Arial, sans-serif" font-size="12.5" fill="#c9d1d9">Figma</text>
<rect x="508.6730769230769" y="164" width="85.34615384615385" height="26" rx="13" fill="#1b2130" stroke="#31263f" stroke-width="1"/>
<circle cx="522.6730769230769" cy="177.0" r="3" fill="#8b5cf6"/>
<text x="532.6730769230769" y="181.5" font-family="Segoe UI, Helvetica, Arial, sans-serif" font-size="12.5" fill="#c9d1d9">WordPress</text>
<rect x="602.0192307692307" y="164" width="57.75" height="26" rx="13" fill="#1b2130" stroke="#31263f" stroke-width="1"/>
<circle cx="616.0192307692307" cy="177.0" r="3" fill="#8b5cf6"/>
<text x="626.0192307692307" y="181.5" font-family="Segoe UI, Helvetica, Arial, sans-serif" font-size="12.5" fill="#c9d1d9">Canva</text>
<rect x="667.7692307692307" y="164" width="82.36538461538461" height="26" rx="13" fill="#1b2130" stroke="#31263f" stroke-width="1"/>
<circle cx="681.7692307692307" cy="177.0" r="3" fill="#8b5cf6"/>
<text x="691.7692307692307" y="181.5" font-family="Segoe UI, Helvetica, Arial, sans-serif" font-size="12.5" fill="#c9d1d9">Photoshop</text>
<rect x="446" y="200" width="88.51923076923077" height="26" rx="13" fill="#1b2130" stroke="#31263f" stroke-width="1"/>
<circle cx="460" cy="213.0" r="3" fill="#8b5cf6"/>
<text x="470" y="217.5" font-family="Segoe UI, Helvetica, Arial, sans-serif" font-size="12.5" fill="#c9d1d9">Illustrator</text>
<rect x="542.5192307692307" y="200" width="100.73076923076923" height="26" rx="13" fill="#1b2130" stroke="#31263f" stroke-width="1"/>
<circle cx="556.5192307692307" cy="213.0" r="3" fill="#8b5cf6"/>
<text x="566.5192307692307" y="217.5" font-family="Segoe UI, Helvetica, Arial, sans-serif" font-size="12.5" fill="#c9d1d9">Premiere Pro</text>
<rect x="651.25" y="200" width="42.36538461538461" height="26" rx="13" fill="#1b2130" stroke="#31263f" stroke-width="1"/>
<circle cx="665.25" cy="213.0" r="3" fill="#8b5cf6"/>
<text x="675.25" y="217.5" font-family="Segoe UI, Helvetica, Arial, sans-serif" font-size="12.5" fill="#c9d1d9">Git</text>
<rect x="701.6153846153846" y="200" width="63.80769230769231" height="26" rx="13" fill="#1b2130" stroke="#31263f" stroke-width="1"/>
<circle cx="715.6153846153846" cy="213.0" r="3" fill="#8b5cf6"/>
<text x="725.6153846153846" y="217.5" font-family="Segoe UI, Helvetica, Arial, sans-serif" font-size="12.5" fill="#c9d1d9">GitHub</text>
<line x1="426.0" y1="26" x2="426.0" y2="226" stroke="#21262d" stroke-width="1"/>
</svg>